<?xml version="1.0" encoding="utf-8"?>
<!-- Generator: Adobe Illustrator 20.1.0, SVG Export Plug-In . SVG Version: 6.00 Build 0)  -->
<svg version="1.1" id="Laag_1" xmlns="http://www.w3.org/2000/svg" xmlns:xlink="http://www.w3.org/1999/xlink" x="0px" y="0px"
	 viewBox="0 0 285.3 285.1" style="enable-background:new 0 0 285.3 285.1;" xml:space="preserve">
<style type="text/css">
	.st0{fill:#C2C6D9;}
	.st1{fill:#D94157;stroke:#000000;stroke-width:16;stroke-linecap:round;stroke-linejoin:round;stroke-miterlimit:10;}
	.st2{fill:#C3C6D9;}
	.st3{fill:#D94157;}
	.st4{fill:#FFFFFF;}
	.st5{fill:#E73F1E;}
</style>
<rect x="-0.4" y="-0.6" class="st0" width="285.7" height="285.7"/>
<g>
	<g>
		<g>
			<g>
				<path d="M224,115.1l28.1,28l0,0c3,2.7,4.9,6.6,4.9,10.9c0,1.8-0.3,3.5-0.9,5.1c4,1.1,13.2,2.3,12.2-9.5
					c3.6,12.6-5.6,17.1-15.2,14.3c-2.6,2.8-6.4,4.6-10.6,4.6h-25.3l3.3-5.7h7c-1.7-2.3-2.8-5.6-2.8-9.2c0-0.3,0-0.6,0-0.9
					c-1.2-1.8-3.3-5-6-9.6l-9.2,25.8h-5.5l10.5-32.9c-3.7-4.9-3.9-8.3-3.4-10.4c-1.6,0.9-3.4,1.5-5.4,1.5c-1.7,0-3.4-0.4-4.8-1.1
					c-0.7-0.3-1.3-0.7-1.9-1.2v0c-1.5-1-6-5.7-4-7.4c2.3-2.2,4-9.3,4-9.3c1.2-5.8,6.4-10.2,12.6-10.2c1.2,0,2.3,0.2,3.4,0.5"/>
			</g>
			<g>
				<path d="M204.1,170.9h5.5c0.7,0,1.4-0.5,1.7-1.2l7.9-22.3c1.6,2.6,2.9,4.6,3.8,6c0,0.1,0,0.2,0,0.4c0,2.7,0.5,5.2,1.5,7.4h-4
					c-0.6,0-1.2,0.3-1.5,0.9l-3.3,5.7c-0.3,0.5-0.3,1.2,0,1.8c0.3,0.5,0.9,0.9,1.5,0.9h25.3c4.2,0,8.1-1.5,11.1-4.4
					c5.7,1.4,11,0.3,14.1-2.9c2.2-2.2,4.4-6.4,2.2-13.9c-0.3-0.9-1.1-1.4-2-1.2c-0.9,0.2-1.5,1-1.4,1.9c0.3,3.4-0.3,5.8-1.8,7
					c-1.7,1.4-4.4,1.3-6.4,1c0.3-1.2,0.5-2.5,0.5-3.8c0-4.7-2-9.1-5.5-12.2l-28.1-28c-0.7-0.7-1.8-0.7-2.5,0c-0.7,0.7-0.7,1.8,0,2.5
					l28.1,28c0,0,0.1,0.1,0.1,0.1c2.8,2.4,4.3,5.9,4.3,9.6c0,1.6-0.3,3.1-0.8,4.5c-0.2,0.5-0.1,1,0.1,1.4c0.2,0.4,0.6,0.8,1.1,0.9
					c2.3,0.6,6.2,1.3,9.4-0.1c-2.4,2.3-6.8,2.9-11.5,1.6c-0.6-0.2-1.3,0-1.8,0.5c-2.4,2.6-5.7,4-9.3,4h-22.2l1.2-2.1h6
					c0.7,0,1.3-0.4,1.6-1c0.3-0.6,0.2-1.3-0.2-1.8c-1.5-2.1-2.4-5.1-2.4-8.2c0-0.2,0-0.5,0-0.8c0-0.4-0.1-0.8-0.3-1.1
					c-1.2-1.8-3.3-5-5.9-9.5c-0.3-0.6-1-0.9-1.7-0.9c-0.7,0.1-1.3,0.5-1.5,1.2l-8.8,24.6h-1.8l9.8-30.6c0.2-0.5,0.1-1.1-0.3-1.6
					c-3.3-4.4-3.5-7.2-3.1-8.9c0.2-0.7-0.1-1.4-0.7-1.8c-0.6-0.4-1.3-0.5-1.9-0.1c-1.4,0.8-2.9,1.2-4.5,1.2c-1.4,0-2.8-0.3-4-0.9
					c-0.5-0.3-1.1-0.6-1.6-1c-0.1,0-0.1-0.1-0.2-0.1c-1.4-1-3.7-3.7-3.7-4.7c2.6-2.6,4.3-9.3,4.5-10.1c0,0,0,0,0,0
					c1.1-5.1,5.7-8.8,10.9-8.8c1,0,2,0.1,3,0.4c0.9,0.3,1.9-0.3,2.2-1.2c0.3-0.9-0.3-1.9-1.2-2.2c-1.3-0.4-2.6-0.5-3.9-0.5
					c-6.9,0-12.9,4.9-14.3,11.6c-0.6,2.5-2.1,7-3.5,8.4c-0.7,0.7-1.1,1.7-1,2.8c0.2,3.1,4.1,6.6,5.2,7.4c0.7,0.5,1.4,1,2.1,1.3
					c1.7,0.9,3.6,1.3,5.6,1.3c1.2,0,2.4-0.2,3.5-0.5c0.2,2.1,1.1,4.8,3.4,8l-10.3,32.1c-0.2,0.5-0.1,1.1,0.3,1.6
					C203,170.6,203.6,170.9,204.1,170.9z"/>
			</g>
		</g>
		<g>
			<g>
				<path class="st1" d="M224.7,112"/>
			</g>
		</g>
		<g>
			<g>
				<g id="XMLID_2_">
					<g>
						<path class="st2" d="M231.1,142.4c0.4,0.6,0.1,1.4-0.5,1.8c-0.9,0.5-1.6,1.1-2.2,1.8l1.5-2.9c-5.7,3.2-5.1,9.8-5.1,9.8
							l1.7-3.2c-0.4,1.6-0.3,3-0.3,3.1c0.1,0.7-0.5,1.4-1.2,1.4c0,0-0.1,0-0.1,0c-0.7,0-1.3-0.5-1.3-1.2c0-0.3-0.5-7.5,5.8-11.1
							C229.9,141.6,230.7,141.8,231.1,142.4z"/>
						<path class="st2" d="M229.9,143.1l-1.5,2.9c-1.1,1.2-1.6,2.6-1.9,3.7l-1.7,3.2C224.8,152.9,224.2,146.3,229.9,143.1z"/>
						<path class="st3" d="M228.4,146l-1.9,3.7C226.7,148.5,227.3,147.2,228.4,146z"/>
					</g>
					<g>
					</g>
				</g>
			</g>
		</g>
		<g>
			<g>
				<g id="XMLID_1_">
					<g>
						<path class="st2" d="M232.7,104.6c0.4,1.1,0.4,2.1-0.2,3.1c-2.7,5.9-12.7,11.3-13.1,11.5c-0.2,0.1-0.4,0.1-0.5,0.1
							c-0.4,0-0.8-0.2-1-0.5c-2.4-4.2-4-10.7-4.2-17.3c-0.1-2.4,0.5-4,1.6-4.8c0.9-0.6,2-0.7,3.2-0.3h0
							C221.5,97.3,231,100.4,232.7,104.6z M231.6,107.3c2.8-5.1-13.2-9.7-13.4-9.8c-0.2,0-3.5-1.5-3.3,4c0.2,5.5,1.4,12.2,4,16.8
							C218.9,118.3,229,112.9,231.6,107.3z"/>
						<path class="st2" d="M218.2,97.5c0.2,0.1,16.2,4.6,13.4,9.8c-2.6,5.6-12.6,11.1-12.6,11.1c-2.7-4.6-3.9-11.3-4-16.8
							C214.8,96,218.1,97.5,218.2,97.5z M230.6,106.8c0.2-0.4,0.3-0.8,0.1-1.3c-1-2.4-7.3-5.3-12.7-6.9l-0.1,0c0,0-0.1,0-0.1,0
							c-0.2-0.1-0.4-0.1-0.6-0.1c-0.2,0-0.3,0-0.5,0.1c-0.2,0.1-0.8,0.7-0.7,3c0.2,5.8,1.4,11.4,3.4,15.3
							C221.9,115.3,228.6,111.1,230.6,106.8C230.6,106.8,230.6,106.8,230.6,106.8z"/>
						<path d="M230.7,105.5c0.2,0.5,0.2,0.8-0.1,1.3c0,0,0,0.1,0,0.1c-2,4.3-8.7,8.5-11.2,10c-2-3.9-3.2-9.6-3.4-15.3
							c-0.1-2.2,0.5-2.8,0.7-3c0.1-0.1,0.3-0.1,0.5-0.1c0.2,0,0.5,0.1,0.6,0.1c0,0,0.1,0,0.1,0l0.1,0
							C223.4,100.2,229.7,103,230.7,105.5z"/>
					</g>
					<g>
					</g>
				</g>
			</g>
		</g>
		<g>
			<g>
				<circle class="st4" cx="205.4" cy="109.6" r="1.7"/>
			</g>
		</g>
	</g>
	<g>
		<g>
			<g>
				<path d="M14,146.4c0-1.7,0.3-3.1,0.8-4.4c0.5-1.2,1.2-2.3,2.1-3.1c0.9-0.8,2-1.4,3.2-1.8c1.2-0.4,2.5-0.6,3.9-0.6
					c0.5,0,1,0,1.5,0.1c0.5,0.1,0.9,0.2,1.2,0.3v-6.2c0.3-0.1,0.7-0.2,1.2-0.2c0.6-0.1,1.1-0.1,1.7-0.1c0.6,0,1.1,0,1.5,0.1
					c0.4,0.1,0.8,0.2,1.1,0.5c0.3,0.2,0.5,0.5,0.7,0.9c0.2,0.4,0.2,0.9,0.2,1.5v18.1c0,1.2-0.6,2.2-1.7,2.9
					c-0.7,0.5-1.7,0.9-2.9,1.3c-1.2,0.4-2.5,0.6-4.1,0.6c-1.7,0-3.1-0.2-4.5-0.7c-1.3-0.5-2.4-1.1-3.3-2c-0.9-0.9-1.6-1.9-2.1-3.1
					C14.2,149.3,14,147.9,14,146.4z M24.8,141.6c-1.4,0-2.4,0.4-3.2,1.2c-0.7,0.8-1.1,2-1.1,3.6c0,1.6,0.3,2.8,1,3.6
					c0.7,0.8,1.7,1.2,3,1.2c0.5,0,0.9-0.1,1.2-0.2c0.4-0.1,0.7-0.3,0.9-0.5v-8.4C26.2,141.8,25.6,141.6,24.8,141.6z"/>
			</g>
			<g>
				<path d="M56.4,146.4c0,1.6-0.2,3-0.7,4.2c-0.5,1.2-1.2,2.3-2,3.1c-0.9,0.8-1.9,1.5-3.2,1.9c-1.2,0.4-2.6,0.7-4.1,0.7
					s-2.9-0.2-4.1-0.7c-1.2-0.5-2.3-1.1-3.2-2c-0.9-0.9-1.6-1.9-2-3.1c-0.5-1.2-0.7-2.6-0.7-4.1c0-1.5,0.2-2.9,0.7-4.1
					c0.5-1.2,1.2-2.3,2-3.1c0.9-0.9,1.9-1.5,3.2-2c1.2-0.5,2.6-0.7,4.1-0.7s2.9,0.2,4.1,0.7c1.2,0.5,2.3,1.1,3.2,2
					c0.9,0.9,1.6,1.9,2,3.1C56.2,143.6,56.4,144.9,56.4,146.4z M43.1,146.4c0,1.6,0.3,2.7,0.9,3.6c0.6,0.8,1.4,1.2,2.5,1.2
					c1.1,0,1.9-0.4,2.5-1.3c0.6-0.8,0.9-2,0.9-3.6c0-1.5-0.3-2.7-0.9-3.5c-0.6-0.8-1.4-1.2-2.5-1.2c-1.1,0-1.9,0.4-2.5,1.2
					C43.3,143.7,43.1,144.9,43.1,146.4z"/>
			</g>
			<g>
				<path d="M68.7,136.5c1.5,0,2.8,0.2,4,0.6c1.2,0.4,2.2,0.8,3,1.4c0.5,0.4,0.9,0.8,1.2,1.2c0.3,0.4,0.4,1,0.4,1.7v13.4
					c0,1.4-0.3,2.5-0.8,3.5c-0.5,1-1.2,1.8-2.1,2.4c-0.9,0.6-1.9,1.1-3.1,1.4s-2.5,0.5-3.8,0.5c-2.3,0-4.1-0.3-5.5-0.9s-2-1.6-2-3
					c0-0.6,0.1-1.1,0.4-1.5c0.2-0.4,0.5-0.8,0.8-1c0.7,0.4,1.6,0.8,2.5,1c0.9,0.3,1.9,0.4,2.9,0.4c1.4,0,2.5-0.2,3.3-0.7
					c0.8-0.5,1.2-1.2,1.2-2.2V154c-1,0.5-2.3,0.7-3.8,0.7c-1.1,0-2.2-0.2-3.3-0.5c-1-0.3-1.9-0.9-2.7-1.6c-0.8-0.7-1.4-1.7-1.9-2.8
					c-0.5-1.1-0.7-2.5-0.7-4.1c0-1.6,0.2-2.9,0.7-4.1c0.5-1.1,1.2-2.1,2.1-2.9c0.9-0.8,1.9-1.3,3.1-1.7
					C65.9,136.7,67.3,136.5,68.7,136.5z M71.1,142.1c-0.2-0.1-0.4-0.2-0.8-0.3c-0.3-0.1-0.8-0.2-1.3-0.2c-1.3,0-2.2,0.4-2.8,1.1
					c-0.6,0.7-0.9,1.7-0.9,3c0,1.5,0.3,2.5,0.9,3.2c0.6,0.6,1.4,1,2.4,1c1,0,1.9-0.2,2.5-0.7V142.1z"/>
			</g>
		</g>
		<g>
			<g>
				<path class="st5" d="M97.9,136.5c1,0,2.1,0.1,3.1,0.4c1,0.3,1.9,0.7,2.6,1.3c0.8-0.5,1.6-0.9,2.6-1.3c1-0.3,2.1-0.5,3.5-0.5
					c1,0,1.9,0.1,2.9,0.4c0.9,0.3,1.8,0.7,2.5,1.2c0.7,0.5,1.3,1.3,1.7,2.2c0.4,0.9,0.7,2,0.7,3.3v12c-0.3,0.1-0.7,0.2-1.2,0.2
					c-0.5,0.1-1.1,0.1-1.7,0.1c-0.6,0-1.1,0-1.5-0.1c-0.4-0.1-0.8-0.2-1.1-0.5c-0.3-0.2-0.5-0.5-0.7-0.9c-0.2-0.4-0.2-0.9-0.2-1.5
					v-9.1c0-0.8-0.2-1.3-0.7-1.7c-0.4-0.3-1-0.5-1.8-0.5c-0.4,0-0.7,0.1-1.1,0.2c-0.4,0.2-0.7,0.3-0.9,0.5c0,0.1,0,0.2,0,0.3
					c0,0.1,0,0.2,0,0.2v12.7c-0.3,0.1-0.7,0.2-1.2,0.2c-0.5,0.1-1.1,0.1-1.7,0.1s-1.1,0-1.5-0.1c-0.4-0.1-0.8-0.2-1.1-0.5
					c-0.3-0.2-0.5-0.5-0.7-0.9c-0.2-0.4-0.2-0.9-0.2-1.5v-9.1c0-0.8-0.2-1.3-0.7-1.7c-0.5-0.3-1-0.5-1.7-0.5c-0.5,0-0.9,0.1-1.2,0.2
					c-0.3,0.1-0.6,0.3-0.8,0.4v13.4c-0.3,0.1-0.7,0.2-1.2,0.2c-0.5,0.1-1.1,0.1-1.7,0.1c-0.6,0-1.1,0-1.5-0.1
					c-0.4-0.1-0.8-0.2-1.1-0.5c-0.3-0.2-0.5-0.5-0.7-0.9c-0.2-0.4-0.2-0.9-0.2-1.5v-11.6c0-0.7,0.1-1.2,0.4-1.6
					c0.3-0.4,0.7-0.8,1.2-1.1c0.9-0.6,1.9-1.1,3.2-1.5S96.5,136.5,97.9,136.5z"/>
			</g>
			<g>
				<path class="st5" d="M131.2,156.3c-1.5,0-2.9-0.2-4.2-0.6c-1.3-0.4-2.4-1.1-3.4-1.9c-1-0.8-1.7-1.9-2.3-3.2
					c-0.5-1.3-0.8-2.8-0.8-4.5c0-1.7,0.3-3.1,0.8-4.3c0.5-1.2,1.3-2.2,2.2-3c0.9-0.8,1.9-1.4,3.1-1.7c1.1-0.4,2.3-0.6,3.5-0.6
					c1.4,0,2.6,0.2,3.7,0.6c1.1,0.4,2.1,1,2.9,1.7c0.8,0.7,1.4,1.6,1.9,2.6c0.4,1,0.7,2.1,0.7,3.3c0,0.9-0.2,1.5-0.7,2
					c-0.5,0.5-1.2,0.8-2,0.9l-9.4,1.4c0.3,0.8,0.9,1.5,1.7,1.9c0.9,0.4,1.9,0.6,3,0.6c1,0,2-0.1,3-0.4c0.9-0.3,1.7-0.6,2.3-0.9
					c0.4,0.3,0.8,0.6,1,1.1c0.3,0.5,0.4,0.9,0.4,1.5c0,1.1-0.5,2-1.6,2.6c-0.8,0.4-1.7,0.7-2.8,0.9C133,156.2,132,156.3,131.2,156.3
					z M130.1,141.3c-0.6,0-1.1,0.1-1.6,0.3c-0.4,0.2-0.8,0.5-1.1,0.8c-0.3,0.3-0.5,0.7-0.6,1.1c-0.1,0.4-0.2,0.8-0.2,1.2l6.5-1.1
					c-0.1-0.5-0.4-1-0.8-1.5C131.7,141.5,131,141.3,130.1,141.3z"/>
			</g>
			<g>
				<path class="st5" d="M154.1,143.9c0-0.8-0.2-1.4-0.7-1.7c-0.4-0.4-1.1-0.6-1.8-0.6c-0.5,0-1,0.1-1.5,0.2
					c-0.5,0.1-0.9,0.3-1.3,0.6v13.3c-0.3,0.1-0.7,0.2-1.2,0.2c-0.5,0.1-1.1,0.1-1.7,0.1c-0.6,0-1.1,0-1.5-0.1
					c-0.4-0.1-0.8-0.2-1.1-0.5c-0.3-0.2-0.5-0.5-0.7-0.9c-0.2-0.4-0.2-0.9-0.2-1.5v-11.5c0-0.7,0.1-1.2,0.4-1.7
					c0.3-0.4,0.7-0.8,1.2-1.2c0.9-0.6,2-1.1,3.3-1.5c1.3-0.4,2.8-0.6,4.4-0.6c2.9,0,5.1,0.6,6.7,1.9c1.6,1.3,2.3,3,2.3,5.3v12
					c-0.3,0.1-0.7,0.2-1.2,0.2c-0.5,0.1-1.1,0.1-1.7,0.1c-0.6,0-1.1,0-1.5-0.1c-0.4-0.1-0.8-0.2-1.1-0.5c-0.3-0.2-0.5-0.5-0.7-0.9
					c-0.2-0.4-0.2-0.9-0.2-1.5V143.9z"/>
			</g>
			<g>
				<path class="st5" d="M164.6,137.4c0.3-0.1,0.7-0.2,1.2-0.2c0.5-0.1,1.1-0.1,1.7-0.1c0.6,0,1.1,0,1.5,0.1
					c0.4,0.1,0.8,0.2,1.1,0.5c0.3,0.2,0.5,0.5,0.7,0.9c0.2,0.4,0.2,0.9,0.2,1.5v8.2c0,1,0.3,1.8,0.8,2.2c0.5,0.4,1.2,0.7,2.2,0.7
					c0.6,0,1.1-0.1,1.4-0.2c0.4-0.1,0.7-0.2,0.9-0.3v-13.4c0.3-0.1,0.7-0.2,1.2-0.2c0.5-0.1,1.1-0.1,1.7-0.1c0.6,0,1.1,0,1.5,0.1
					c0.4,0.1,0.8,0.2,1.1,0.5c0.3,0.2,0.5,0.5,0.7,0.9c0.2,0.4,0.2,0.9,0.2,1.5v11.6c0,1.3-0.5,2.2-1.6,2.9c-0.9,0.6-2,1-3.2,1.3
					c-1.2,0.3-2.6,0.4-4,0.4c-1.4,0-2.6-0.2-3.8-0.5c-1.2-0.3-2.2-0.8-3-1.4c-0.8-0.6-1.5-1.5-2-2.5c-0.5-1-0.7-2.2-0.7-3.7V137.4z"
					/>
			</g>
		</g>
	</g>
</g>
</svg>
