<?xml version="1.0" encoding="utf-8"?>
<!-- Generator: Adobe Illustrator 20.1.0, SVG Export Plug-In . SVG Version: 6.00 Build 0)  -->
<svg version="1.1" id="Laag_1" xmlns="http://www.w3.org/2000/svg" xmlns:xlink="http://www.w3.org/1999/xlink" x="0px" y="0px"
	 viewBox="0 0 285.7 285.7" style="enable-background:new 0 0 285.7 285.7;" xml:space="preserve">
<style type="text/css">
	.st0{fill:#C2C6D9;}
	.st1{fill:#A8272A;}
	.st2{fill:#5B1518;}
	.st3{fill:#E1777A;}
	.st4{fill:#DB3235;}
</style>
<rect class="st0" width="285.7" height="285.7"/>
<g>
	<g>
		<polygon class="st1" points="153.4,159.2 170.4,160.7 170.4,182.1 153.4,172.3 		"/>
		<polygon class="st2" points="170.4,160.7 187.4,146.6 187.4,172.3 170.4,182.1 		"/>
		<polygon class="st3" points="170.4,160.7 153.4,159.2 170.4,142.8 187.4,146.6 		"/>
	</g>
	<g>
		<polygon class="st2" points="108.8,208.3 125.8,208.9 108.8,218.7 		"/>
		<polygon class="st1" points="91.8,196.7 108.8,208.3 108.8,218.7 91.8,208.9 		"/>
		<polygon class="st3" points="125.8,208.9 108.8,208.3 91.8,196.7 108.8,199.1 		"/>
	</g>
	<g>
		<polygon class="st3" points="117.3,163.8 100.3,152.6 117.3,145.4 134.3,154.4 		"/>
		<polygon class="st1" points="117.3,202.4 117.3,163.8 100.3,152.6 100.3,190.8 		"/>
		<polygon class="st2" points="117.3,202.4 134.3,203 134.3,154.4 117.3,163.8 		"/>
	</g>
	<g>
		<g>
			<polygon class="st1" points="167,152 150,150.5 150,144 167,113.5 			"/>
			<polyline class="st1" points="115.6,153.8 116,153.8 116,104.7 99,94.9 99,142.6 			"/>
			<path class="st1" d="M133,94.9"/>
			<polygon class="st2" points="116,153.8 133,144.5 133,134.1 150,144 167,113.5 167,152 184.1,137.9 184.1,83 161.9,84.7 
				150,104.7 133,94.9 116,104.7 			"/>
			<polygon class="st1" points="133,94.9 147.2,70.3 161.9,84.7 150,104.7 			"/>
			<polygon class="st4" points="99,94.9 116,85 133,94.9 116,104.7 			"/>
		</g>
		<polygon class="st3" points="147.2,70.3 167,68.4 184.1,83 161.9,84.7 		"/>
	</g>
	<g>
		<polygon class="st1" points="157.1,64.3 171.8,78.8 177,69.3 160,59.4 		"/>
		<polygon class="st4" points="177,69.3 194,59.4 177,49.6 160,59.4 		"/>
		<polygon class="st2" points="171.8,78.8 194,77.1 194,59.4 177,69.3 		"/>
	</g>
</g>
</svg>
