<?xml version="1.0" encoding="utf-8"?>
<!-- Generator: Adobe Illustrator 20.1.0, SVG Export Plug-In . SVG Version: 6.00 Build 0)  -->
<svg version="1.1" id="Laag_1" xmlns="http://www.w3.org/2000/svg" xmlns:xlink="http://www.w3.org/1999/xlink" x="0px" y="0px"
	 viewBox="0 0 285.7 285.7" style="enable-background:new 0 0 285.7 285.7;" xml:space="preserve">
<style type="text/css">
	.st0{fill:#C2C6D9;}
	.st1{fill:#FFFFFF;}
</style>
<rect class="st0" width="285.7" height="285.7"/>
<g>
	<g>
		<path class="st1" d="M125,65.8l-22.8-2.3l-4.6-13L125.3,25l6.3,25.7l-0.1,0.1L125,65.8z M102.9,62.6l21.6,2.2l6.1-14.1l-5.8-23.8
			l-26.1,24L102.9,62.6z"/>
	</g>
	<g>
		<path class="st1" d="M102.3,63.5l-13.4-5l9.3-8.6l4.7,13L102.3,63.5z M90.7,58.1l11,4.1l-3.9-10.7L90.7,58.1z"/>
	</g>
	<g>
		<path class="st1" d="M81.9,85.6l-0.8-0.5l8.4-27.4l13.8,5.2L81.9,85.6z M90.1,58.9l-7.5,24.5l19-20.2L90.1,58.9z"/>
	</g>
	<g>
		<path class="st1" d="M96.8,140L66,136.9l15.5-53.5L96.8,140z M67.3,136.1l28.2,2.8L81.6,87L67.3,136.1z"/>
	</g>
	<g>
		<path class="st1" d="M155,61.9l-24.1-10.8l0-0.9L166.4,37l0.6,0.7l-11.4,23.9L155,61.9z M132.3,50.7l22.6,10.1l10.7-22.5
			L132.3,50.7z"/>
	</g>
	<g>
		<path class="st1" d="M116.9,87.1l-0.7-0.6l14.4-36l0.6-0.3L155.4,61l0.1,0.8L116.9,87.1z M131.3,51.3l-13.7,34.1l36.5-23.9
			L131.3,51.3z"/>
	</g>
	<g>
		<path class="st1" d="M107.1,119.8l-0.9-0.1L102,63.1l0.9-0.3L117,86.4l0,0.4L107.1,119.8z M103.1,65l3.8,52.1l9.2-30.3L103.1,65z"
			/>
	</g>
	<g>
		<path class="st1" d="M96.6,139.7l-0.9-0.1L81.1,85.4l0.8-0.4l25.1,34.4l0,0.5L96.6,139.7z M82.7,87.6l13.6,50.6l9.8-18.5
			L82.7,87.6z"/>
	</g>
	<g>
		<path class="st1" d="M112,141.4L112,141.4L112,141.4c-0.5-0.1-9.8-0.9-15.9-1.4l-0.4-0.7l10.5-19.8l0.9,0.1l5.4,21.2
			c0.1,0.1,0.1,0.1,0,0.2L112,141.4z M96.9,139.1c1.3,0.1,4.3,0.4,7.2,0.6c4.1,0.4,6.2,0.5,7.3,0.7l-4.9-19.4L96.9,139.1z"/>
	</g>
	<g>
		<path class="st1" d="M157.5,93.5l-0.9-0.2l-1.9-31.9l0.9-0.2l8.1,20l0,0.4L157.5,93.5z M155.8,64.3l1.6,27.3l5.3-10.2L155.8,64.3z
			"/>
	</g>
	<g>
		<path class="st1" d="M157,93.8l-11.6-2l-0.4-0.6l9.7-29.9l0.9,0.1l1.9,31.9L157,93.8z M146.1,91l10.4,1.8L154.8,64L146.1,91z"/>
	</g>
	<g>
		<path class="st1" d="M145.1,91.6l-11.3-16.2l0.1-0.7l21-13.7l0.7,0.5l-9.7,29.9L145.1,91.6z M134.9,75.3l10.5,15l9-27.7
			L134.9,75.3z"/>
	</g>
	<g>
		<path class="st1" d="M127.7,122.8l-21.1-2.7l-0.4-0.6l10-33l0.9,0l11.1,35.7L127.7,122.8z M107.2,119.2l19.8,2.5l-10.4-33.5
			L107.2,119.2z"/>
	</g>
	<g>
		<path class="st1" d="M127.3,122.5l-11.1-35.7l0.4-0.6l14.4-1.4l0.5,0.5l-3.3,37.1L127.3,122.5z M117.3,87.1l10.2,32.8l3.1-34.1
			L117.3,87.1z"/>
	</g>
	<g>
		<path class="st1" d="M116.7,87.1l-0.3-0.9l17.6-11.5l0.7,0.1l6,8.5l-0.3,0.7L116.7,87.1z M134.1,75.8l-15.5,10.1l20.7-2.6
			L134.1,75.8z"/>
	</g>
	<g>
		<path class="st1" d="M88.9,168.6l-0.8,0l-21.9-31.8l0.4-0.7l45.4,4.4l0.3,0.8L88.9,168.6z M67.6,137.1l21,30.5l22.5-26.3
			L67.6,137.1z"/>
	</g>
	<g>
		<path class="st1" d="M98.8,183.2l-22.2-14.4l-0.2-0.3l-10.2-31.8l0.8-0.4l32.4,46.2L98.8,183.2z M77.2,168l20,13l-29.2-41.7
			L77.2,168z"/>
	</g>
	<g>
		<path class="st1" d="M84.2,193l-0.7-0.3l-7.1-24.3l0.7-0.5l22.2,14.4l0,0.8L84.2,193z M77.6,169.4l6.6,22.4l13.9-9.1L77.6,169.4z"
			/>
	</g>
	<g>
		<path class="st1" d="M88.3,207.1l-0.9-0.1l-4-14.3l0.2-0.5l15.1-9.8l0.7,0.6L88.3,207.1z M84.5,192.8l3.5,12.7l9.9-21.4
			L84.5,192.8z"/>
	</g>
	<g>
		<path class="st1" d="M91,233.1l-3.6-26.2l0-0.3l5.2-11.3c0.5-1,0.7-1.6,0.9-2c0-0.1,0-0.1,0-0.1l0,0c0.3-0.4,0.4-0.4,0.6-0.3
			l0.2,0.6c0,0,0,0,0,0l0,0c-0.2,1-1.9,28.8-2.6,39.4L91,233.1z M88.4,206.9l2.9,21.3c0.8-12.8,1.6-26.3,2.1-32.1
			C91.7,199.7,88.9,206,88.4,206.9z"/>
	</g>
	<g>
		<path class="st1" d="M93,242.8l-0.8-0.3l-1.2-9.4l0.4-0.5l16.1-2.2l0.4,0.8L93,242.8z M92,233.4l1,8.1l12.8-10L92,233.4z"/>
	</g>
	<g>
		<path class="st1" d="M107.1,231c-4.8-13.9-12-34.6-13.2-37c-0.1,0-0.1-0.1-0.2-0.1l-0.1-0.6l0.5-0.3c0.1,0,0.1,0,0.3,0.2
			c0.9,0.1,6.4-0.7,11.3-1.6l0.6,0.4l1.7,38.9L107.1,231z M94.9,194.1c1.1,2.4,3.9,9.9,12,33.5l-1.6-35
			C99.1,193.7,96.2,194.1,94.9,194.1z M94.5,193.2c0,0,0,0.1,0.1,0.1l0,0C94.5,193.3,94.5,193.2,94.5,193.2z"/>
	</g>
	<g>
		<path class="st1" d="M119.8,192.4h-14l-0.4-0.2l-17.3-23.6l0.2-0.7l35.5-12.4l0.6,0.5l-4.3,36L119.8,192.4z M106.1,191.5h13.3
			l4.1-34.8l-34.2,11.9L106.1,191.5z"/>
	</g>
	<g>
		<path class="st1" d="M112.4,141.2l-0.8-0.2l-5.4-21.3l0.5-0.6l21.1,2.7l0.3,0.8L112.4,141.2z M107.3,120.2l5,19.7l14.5-17.2
			L107.3,120.2z"/>
	</g>
	<g>
		<path class="st1" d="M123.7,156.3l-12.1-15.1l0-0.6l15.7-18.6l0.8,0.4l-3.6,33.6L123.7,156.3z M112.6,140.9l11.1,13.9l3.4-30.9
			L112.6,140.9z"/>
	</g>
	<g>
		<path class="st1" d="M129.9,99.2l-0.5-0.5l1.2-13.5l0.9-0.2l7.2,12.8l-0.4,0.7L129.9,99.2z M131.4,86.8l-1,11.4l7.1-0.5
			L131.4,86.8z"/>
	</g>
	<g>
		<path class="st1" d="M138.9,98.8l-1.5-0.2l-7.2-12.8l0.7-1.4l9.1-1.5l0.9,0.4l5.3,7.6l-0.1,1.2L138.9,98.8z M132.5,85.9l6,10.6
			l5.7-5.3l-4.5-6.5L132.5,85.9z"/>
	</g>
	<g>
		<path class="st1" d="M149.3,102.6l-11.2-4.1l-0.2-0.8l7.2-6.7l0.8,0.2l4,10.9L149.3,102.6z M139.2,97.9l9.5,3.5l-3.4-9.2
			L139.2,97.9z"/>
	</g>
	<g>
		<path class="st1" d="M150.9,121.1l-21.4-22l0.3-0.8l8.4-0.6l0.4,0.2l13,22.7L150.9,121.1z M130.9,99.1l18.1,18.6l-11-19.1
			L130.9,99.1z"/>
	</g>
	<g>
		<path class="st1" d="M150.9,121l-7.4-12.9l0.1-0.6L156.7,93l0.8,0.4l-5.8,27.4L150.9,121z M144.4,107.9l6.6,11.5l5.2-24.5
			L144.4,107.9z"/>
	</g>
	<g>
		<path class="st1" d="M127.8,122.8l-0.5-0.5l2.1-23.6l0.8-0.3l21.4,22l-0.3,0.8L127.8,122.8z M130.2,99.8l-2,22l22-1.5L130.2,99.8z
			"/>
	</g>
	<g>
		<path class="st1" d="M140.3,129.3l-12.8-6.5l0.2-0.9l23.6-1.6l0.3,0.9l-10.7,8.1L140.3,129.3z M129.5,122.7l11,5.6l9.2-6.9
			L129.5,122.7z"/>
	</g>
	<g>
		<path class="st1" d="M150.5,122l3.4-16.3l5,9.4L150.5,122z M154.4,108.4l-2.3,11.1l5.7-4.7L154.4,108.4z"/>
	</g>
	<g>
		<path class="st1" d="M153.6,107.6l3.3-15.7l7.1,14L153.6,107.6z M157.3,94.7l-2.5,11.7l7.8-1.3L157.3,94.7z"/>
	</g>
	<g>
		<path class="st1" d="M158.3,115.9l-4.9-9.2l10.7-1.8L158.3,115.9z M154.9,107.4l3.4,6.5l4.1-7.7L154.9,107.4z"/>
	</g>
	<g>
		<path class="st1" d="M140.6,146.3l-15.2-6.6l2-18.2l13.2,6.7l10.8-8.2l15,14.9L140.6,146.3z M126.4,139.2l14.2,6.1l24.1-10.6
			l-13.4-13.3l-10.6,8l-12.5-6.3L126.4,139.2z"/>
	</g>
	<g>
		<path class="st1" d="M165.5,135.6l-15.2-15.1l31.6-8.1L165.5,135.6z M152.2,121l13.2,13.1l14.3-20.2L152.2,121z"/>
	</g>
	<g>
		<path class="st1" d="M149.3,121.7l8.6-7.2l4.8-9.1l-2.3-4.5l21.7,12.3L149.3,121.7z M162.7,103.4l1.1,2.1l-5.1,9.7l-5.4,4.5
			l26.4-6.8L162.7,103.4z"/>
	</g>
	<g>
		<path class="st1" d="M161.4,103l-4.9-9.7l1.9-3.6l0.3,0c1.5-0.1,14.4-1.3,14.9-1.3h0.3l0.1,0.3c0.2,0.4,0.3,0.6-12.1,13.8
			L161.4,103z M157.6,93.3l4.1,8.1c3.8-4,9.2-9.9,10.9-12c-2.4,0.2-8.9,0.8-13.6,1.2L157.6,93.3z"/>
	</g>
	<g>
		<path class="st1" d="M181.7,114.1l-20.8-11.8l13-14.4L181.7,114.1z M162.3,102.1l17.7,10.1l-6.7-22.3L162.3,102.1z"/>
	</g>
	<g>
		<path class="st1" d="M191,139.2l-10.6-25.8l-7.7-25.7l15.8,12.4L191,139.2z M174.4,90.2l6.9,22.8l8.4,20.4l-2.2-33L174.4,90.2z"/>
	</g>
	<g>
		<path class="st1" d="M193.7,157L164,134.3l26.8,1.5L193.7,157z M167,135.4l25.4,19.5l-2.5-18.1L167,135.4z"/>
	</g>
	<g>
		<path class="st1" d="M169.7,159.6l-30.3-13.8l26.5-11.6L169.7,159.6z M141.7,145.8l26.8,12.2l-3.4-22.5L141.7,145.8z"/>
	</g>
	<g>
		<path class="st1" d="M172.6,183.9l-4-25.1l-3.8-25.1l28.9,22.1L172.6,183.9z M166.1,136l3.5,22.8l3.6,22.8l19.2-25.5L166.1,136z"
			/>
	</g>
	<g>
		<path class="st1" d="M190.2,140.8l-2.8-43.1l7,14.5l0,0.1L190.2,140.8z M188.6,102.6l1.9,29.2l2.8-19.3L188.6,102.6z"/>
	</g>
	<g>
		<path class="st1" d="M192.8,157.4l-3-21.9l12.2,6.7L192.8,157.4z M191,137.2l2.4,17.4l7.3-12.1L191,137.2z"/>
	</g>
	<g>
		<path class="st1" d="M189.8,137.2l3.9-26.5l9.1,18.9L189.8,137.2z M194.1,114l-3.1,21.4l10.5-6.1L194.1,114z"/>
	</g>
	<g>
		<path class="st1" d="M201.7,143.1l-12.3-6.8l13.2-7.7L201.7,143.1z M191.3,136.3l9.5,5.3l0.7-11.2L191.3,136.3z"/>
	</g>
	<g>
		<path class="st1" d="M123.5,156.9l2-18.1l16.1,7L123.5,156.9z M126.3,140.2l-1.6,14.9l14.9-9.2L126.3,140.2z"/>
	</g>
	<g>
		<path class="st1" d="M145.5,183.2h-0.3l-0.1-0.2c-0.2-0.3-0.2-0.4,11.5-29.9l0.2-0.5l13.1,6l-0.5,0.5
			C145.8,183.2,145.8,183.2,145.5,183.2z M157.3,154c-2.7,6.8-8.6,21.7-10.7,27c4.2-4.2,16.1-16.3,21.6-22L157.3,154z"/>
	</g>
	<g>
		<path class="st1" d="M146.2,184.4l-22.8-28.6l17.6-10.8L146.2,184.4z M124.8,156.1l20,25l-4.6-34.5L124.8,156.1z"/>
	</g>
	<g>
		<path class="st1" d="M173.5,183.2h-29.1l25.1-25.4L173.5,183.2z M146.6,182.3h25.7l-3.6-22.5L146.6,182.3z"/>
	</g>
	<g>
		<path class="st1" d="M119.2,192.7l4.5-37.9l22.5,28.2L119.2,192.7z M124.4,157.1l-4.1,34.1l24.3-8.7L124.4,157.1z"/>
	</g>
	<g>
		<path class="st1" d="M166,197l-5.1-14.7h12.8L166,197z M162.2,183.2l3.9,11.3l6-11.3H162.2z"/>
	</g>
	<g>
		<path class="st1" d="M157.5,189.9l-13.8-7.6h18.8L157.5,189.9z M147.3,183.2l9.8,5.4l3.5-5.4H147.3z"/>
	</g>
	<g>
		<path class="st1" d="M118.1,209.8l1.2-18.2l28.1-10L118.1,209.8z M120.2,192.3l-1,15.1l24.3-23.5L120.2,192.3z"/>
	</g>
	<g>
		<path class="st1" d="M167,197.1l-10.4-7.7l5-7.7L167,197.1z M157.9,189.2l7.2,5.3l-3.7-10.6L157.9,189.2z"/>
	</g>
	<g>
		<path class="st1" d="M135.8,216.9l-17.9-8.1l28.6-27.6L135.8,216.9z M119.5,208.5l15.7,7.1l9.3-31.2L119.5,208.5z"/>
	</g>
	<g>
		<path class="st1" d="M188.6,101.3l-15.7-12.3l12.6-13.6L188.6,101.3z M174.3,88.8l13.1,10.3l-2.6-21.6L174.3,88.8z"/>
	</g>
	<g>
		<path class="st1" d="M199.4,77.2L186,62.6l20.6-1.7L199.4,77.2z M188,63.4l11.1,12.1l6-13.5L188,63.4z"/>
	</g>
	<g>
		<path class="st1" d="M187.7,101.9l-3.1-26H200L187.7,101.9z M185.7,76.9l2.6,21.6l10.2-21.6H185.7z"/>
	</g>
	<g>
		<path class="st1" d="M171.5,91.8l15.4-29.6l5.9,6.5l-7.3,8.1L171.5,91.8z M187.1,63.8L175.6,86l9.2-9.9l6.8-7.4L187.1,63.8z"/>
	</g>
	<g>
		<path class="st1" d="M185.6,64.6L199,40.1l16.3,3L185.6,64.6z M199.5,41.2l-11,20.2L213,43.6L199.5,41.2z"/>
	</g>
	<g>
		<path class="st1" d="M185.4,63.6l30-21.7l-9.1,20L185.4,63.6z M213,44.8l-24.3,17.6l16.9-1.4L213,44.8z"/>
	</g>
	<g>
		<path class="st1" d="M215.3,44l-16.8-3l6.3-10.5L215.3,44z M200,40.3l13,2.4l-8.2-10.5L200,40.3z"/>
	</g>
	<g>
		<path class="st1" d="M203.8,32.3l10.4-21l5.5,13.6L203.8,32.3z M214.1,13.6l-8.3,16.7l12.6-5.9L214.1,13.6z"/>
	</g>
	<g>
		<path class="st1" d="M199.9,181.4l-7.4-25.5l9.3-15.4L199.9,181.4z M193.6,156l5.7,19.6l1.5-31.4L193.6,156z"/>
	</g>
	<g>
		<path class="st1" d="M189.3,200.2l-23.9-4.1l7.5-14.2L189.3,200.2z M166.8,195.4l19.9,3.4L173,183.6L166.8,195.4z"/>
	</g>
	<g>
		<path class="st1" d="M187.2,201.9l5.6-48.3l7.2,25l-0.1,0.2L187.2,201.9z M193.3,158.4l-4.5,38.8l10.3-18.7L193.3,158.4z"/>
	</g>
	<g>
		<path class="st1" d="M167.8,226.2l-11-9.9l9.7-22.7L167.8,226.2z M157.9,216.1l8.8,7.9l-1.1-26.1L157.9,216.1z"/>
	</g>
	<g>
		<path class="st1" d="M116.5,236.7l1.7-28.8l8.9,4.1L116.5,236.7z M119.1,209.3l-1.3,22l8.1-18.9L119.1,209.3z"/>
	</g>
	<g>
		<path class="st1" d="M129.6,240.6l-3.6-29.2l10.1,4.6L129.6,240.6z M127.2,213l2.8,22.6l5-19.1L127.2,213z"/>
	</g>
	<g>
		<path class="st1" d="M113.9,249l2.9-15.6l14.1,4.6L113.9,249z M117.5,234.6l-2.3,12.3l13.5-8.7L117.5,234.6z"/>
	</g>
	<g>
		<path class="st1" d="M152.8,227.3l-5.3-10l10.7-1.7L152.8,227.3z M148.9,218l3.8,7.1l3.8-8.3L148.9,218z"/>
	</g>
	<g>
		<path class="st1" d="M152,226.8l5.2-11.3l11.3,10.1L152,226.8z M157.5,217l-4,8.7l12.6-1L157.5,217z"/>
	</g>
	<g>
		<path class="st1" d="M166,206.2l-0.4-11l24.6,4.2L166,206.2z M166.6,196.3l0.3,8.6l18.9-5.4L166.6,196.3z"/>
	</g>
	<g>
		<path class="st1" d="M166.8,226.4l-0.8-21.1l23.3-6.6L166.8,226.4z M167,206l0.7,17.9l19-23.5L167,206z"/>
	</g>
	<g>
		<path class="st1" d="M202.7,203l-15.4-3.2l12.6-22.9L202.7,203z M188.7,199.2l12.8,2.7l-2.3-21.8L188.7,199.2z"/>
	</g>
	<g>
		<polygon class="st1" points="214.6,43.6 213.7,43.2 217.5,35.1 204.7,31.8 204.9,30.8 217.7,34.2 218.6,24.6 219.6,24.7 
			218.6,34.4 218.8,34.5 218.6,34.9 218.5,35.4 218.4,35.4 		"/>
	</g>
	<g>
		<path class="st1" d="M124.3,261.6l-10.4-13.7l16.7-10.8L124.3,261.6z M115.3,248.1l8.6,11.3l5.2-20.2L115.3,248.1z"/>
	</g>
	<g>
		<path class="st1" d="M188.5,219.2l-1-20.9l17.5,16L188.5,219.2z M188.5,200.6l0.9,17.4l13.7-4L188.5,200.6z"/>
	</g>
	<g>
		<path class="st1" d="M138.2,251.1l-10.8-5.2l2.3-9L138.2,251.1z M128.4,245.4l7.3,3.5l-5.7-9.6L128.4,245.4z"/>
	</g>
	<g>
		<path class="st1" d="M204.7,215.4l-18.3-16.8l16.1,3.4L204.7,215.4z M189.6,200.3l13.7,12.6l-1.6-10.1L189.6,200.3z"/>
	</g>
	<g>
		<path class="st1" d="M123.3,261.8l4.3-16.8l10.3,4.9L123.3,261.8z M128.2,246.3l-3.3,12.9l11.1-9.1L128.2,246.3z"/>
	</g>
	<g>
		<path class="st1" d="M202.5,224.2l-15-5.6l17.2-5.1L202.5,224.2z M190.4,218.7l11.3,4.2l1.6-8L190.4,218.7z"/>
	</g>
	<g>
		<path class="st1" d="M112.6,252.3l-12.1-2l9.8-14.1L112.6,252.3z M102.1,249.7l9.3,1.5l-1.8-12.4L102.1,249.7z"/>
	</g>
	<g>
		<path class="st1" d="M189.2,224.2l-0.8-6.4l7.9,2.9L189.2,224.2z M189.5,219.3l0.4,3.5l3.9-1.9L189.5,219.3z"/>
	</g>
	<g>
		<path class="st1" d="M198.6,234.1l3-10.7l2.1-10.4l7.1,9.3L198.6,234.1z M204.3,215.3l-1.7,8.4l-2.1,7.3l9.1-8.8L204.3,215.3z"/>
	</g>
	<g>
		<path class="st1" d="M199.8,233.4l-11.1-10l6.3-3l7.7,2.9L199.8,233.4z M190.4,223.6l8.9,8.1l2.2-7.9l-6.5-2.4L190.4,223.6z"/>
	</g>
	<g>
		<path class="st1" d="M84.2,249.6l8.2-7.5l15.5-12l2.7,7.7L84.2,249.6z M107.4,231.6L93,242.8l-3.8,3.5l20.2-9.1L107.4,231.6z"/>
	</g>
	<g>
		<path class="st1" d="M107.9,259.5h-3.5l-3.8-10.1l12.2,2L107.9,259.5z M105.1,258.6h2.3l3.9-6.5l-9.2-1.5L105.1,258.6z"/>
	</g>
	<g>
		<path class="st1" d="M96.8,261.7l-10.6-5.2v-10.1L96.8,261.7z M87.1,255.9l6.8,3.3l-6.8-9.8V255.9z"/>
	</g>
	<g>
		<path class="st1" d="M95.4,261.4l-9.5-13.6l25.4-11.4l-9.6,13.9L95.4,261.4z M87.4,248.2l8,11.4l5.6-9.8l7.7-11.2L87.4,248.2z"/>
	</g>
	<g>
		<path class="st1" d="M94.5,261.1l6.9-12.2l4,10.5L94.5,261.1z M101.2,251.1l-5,8.7l7.8-1.2L101.2,251.1z"/>
	</g>
</g>
</svg>
