<?xml version="1.0" encoding="utf-8"?>
<!-- Generator: Adobe Illustrator 20.1.0, SVG Export Plug-In . SVG Version: 6.00 Build 0)  -->
<svg version="1.1" id="Laag_1" xmlns="http://www.w3.org/2000/svg" xmlns:xlink="http://www.w3.org/1999/xlink" x="0px" y="0px"
	 viewBox="0 0 313.4 230.9" style="enable-background:new 0 0 313.4 230.9;" xml:space="preserve">
<style type="text/css">
	.st0{fill:none;stroke:#A1222F;stroke-width:40;stroke-linecap:round;stroke-miterlimit:10;}
	.st1{fill:#E9484C;}
	.st2{fill:none;stroke:#E9484C;stroke-width:2;stroke-linecap:round;stroke-miterlimit:10;}
</style>
<g>
	<line class="st0" x1="30.3" y1="201.4" x2="284.1" y2="201.4"/>
	<line class="st0" x1="30.3" y1="31.3" x2="284.1" y2="31.3"/>
	<line class="st0" x1="30.3" y1="116.3" x2="284.1" y2="116.3"/>
</g>
<g>
	<g>
		<path class="st1" d="M583.6,332.8c-0.7,0.3-1.5,0.4-2.3,0.5c0.7-0.5,1.1-0.7,1.7-1.8c-0.8,0.5-1.5,0.4-2.5,0.6
			c-0.7-0.8-1.8-1.3-3-1.3c-2.2,0-4.1,1.8-4.1,4c0,0.3,0,0.6,0.1,0.9c-3.4-0.2-6.4-1.8-8.4-4.2c-0.3,0.6-0.5,1.3-0.5,2.1
			c0,1.4,0.7,2.6,1.8,3.3c-0.7,0-1.3-0.2-1.8-0.5c0,0,0,0,0,0.1c0,1.9,1.4,3.5,3.3,3.9c-0.3,0.1-0.7,0.1-1.1,0.1
			c-0.3,0-0.5,0-0.8-0.1c0.5,1.6,1.9,2.9,3.7,2.9c-1.7,2-5.6,1.4-5.9,1.3c1.8,1.1,3.9,2,6.2,2c7.5,0,11.5-6.1,11.5-11.4
			c0-0.2,0-0.3,0-0.5C582.3,334.2,583,333.6,583.6,332.8z"/>
	</g>
	<g>
		<polygon class="st1" points="551.7,339.4 543.2,339.4 543.2,335.4 552.4,335.4 		"/>
		<path id="Facebook_3_" class="st1" d="M545.2,332.8c0,0.5,0,15.8,0,15.8h3.9c0,0,0-14.8,0-15.1c0-0.4,0.2-0.7,0.7-0.7
			c0.9,0,1.8,0,2.6,0c0-0.5,0-2.4,0-4c-1.1,0-2.5,0-3,0C545.1,328.9,545.2,332.3,545.2,332.8z"/>
	</g>
	<g>
		<path class="st1" d="M606.2,329.5h-11.9c-2.2,0-4,1.8-4,4v11.9c0,2.2,1.8,4,4,4h11.9c2.2,0,4-1.8,4-4v-11.9
			C610.2,331.3,608.4,329.5,606.2,329.5z M608.2,346.6c0,0.4-0.3,0.7-0.7,0.7h-14.5c-0.4,0-0.7-0.3-0.7-0.7v-8.6h4.2
			c0.5-1.5,2-2.6,3.7-2.6c1.7,0,3.2,1.1,3.7,2.6h4.2V346.6z M608.2,334.8c0,0.4-0.3,0.7-0.7,0.7h-2.6c-0.4,0-0.7-0.3-0.7-0.7v-2.6
			c0-0.4,0.3-0.7,0.7-0.7h2.6c0.4,0,0.7,0.3,0.7,0.7V334.8z"/>
		<path class="st1" d="M605.2,336.1h-2.7c1.1,0.7,1.8,1.9,1.8,3.3c0,2.2-1.8,4-4,4c-2.2,0-4-1.8-4-4c0-1.4,0.7-2.6,1.8-3.3h-2.7
			c-0.6,0.9-1,2.1-1,3.3c0,3.3,2.7,5.9,5.9,5.9c3.3,0,5.9-2.7,5.9-5.9C606.2,338.2,605.9,337,605.2,336.1z"/>
	</g>
</g>
<g>
	<line class="st2" x1="512.1" y1="329.2" x2="531.9" y2="349"/>
	<line class="st2" x1="531.9" y1="329.2" x2="512.1" y2="349"/>
</g>
</svg>
