<?xml version="1.0" encoding="utf-8"?>
<!-- Generator: Adobe Illustrator 20.1.0, SVG Export Plug-In . SVG Version: 6.00 Build 0)  -->
<svg version="1.1" id="Laag_1" xmlns="http://www.w3.org/2000/svg" xmlns:xlink="http://www.w3.org/1999/xlink" x="0px" y="0px"
	 viewBox="0 0 170.1 170.5" style="enable-background:new 0 0 170.1 170.5;" xml:space="preserve">
<style type="text/css">
	.st0{fill:#A1222F;}
</style>
<g>
	<path class="st0" d="M136.1,0.4H34c-18.8,0-34,15.2-34,34v102c0,18.8,15.2,34,34,34h102c18.8,0,34-15.2,34-34v-102
		C170.1,15.6,154.9,0.4,136.1,0.4z M153.1,147.8c0,3.1-2.5,5.7-5.7,5.7H22.7c-3.1,0-5.7-2.5-5.7-5.7V74.1h36
		c4.7-13.2,17.2-22.7,32-22.7c14.8,0,27.4,9.5,32,22.7h36V147.8z M153.1,45.8c0,3.1-2.5,5.7-5.7,5.7h-22.7c-3.1,0-5.7-2.5-5.7-5.7
		V23.1c0-3.1,2.5-5.7,5.7-5.7h22.7c3.1,0,5.7,2.5,5.7,5.7V45.8z"/>
	<path class="st0" d="M127.5,57.1h-23.6c9.2,6.1,15.2,16.5,15.2,28.3c0,18.8-15.2,34-34,34c-18.8,0-34-15.2-34-34
		c0-11.8,6.1-22.3,15.2-28.3H42.6C37.2,65.2,34,74.9,34,85.4c0,28.2,22.8,51,51,51c28.2,0,51-22.8,51-51
		C136.1,74.9,132.9,65.2,127.5,57.1z"/>
</g>
</svg>
