<?xml version="1.0" encoding="utf-8"?>
<!-- Generator: Adobe Illustrator 20.1.0, SVG Export Plug-In . SVG Version: 6.00 Build 0)  -->
<svg version="1.1" id="Laag_1" xmlns="http://www.w3.org/2000/svg" xmlns:xlink="http://www.w3.org/1999/xlink" x="0px" y="0px"
	 viewBox="0 0 285.7 285.7" style="enable-background:new 0 0 285.7 285.7;" xml:space="preserve">
<style type="text/css">
	.st0{fill:#A1222F;}
	.st1{fill:#FFFFFF;stroke:#000000;stroke-width:7;stroke-linecap:round;stroke-linejoin:round;stroke-miterlimit:10;}
	.st2{fill:none;stroke:#000000;stroke-width:7;stroke-linecap:round;stroke-miterlimit:10;}
</style>
<rect class="st0" width="285.7" height="285.7"/>
<g>
	<g>
		<path class="st1" d="M205.6,94.6h-15.4l-12-47.4c0.6-6.4,1.9-12.9,4.3-19.1C201.1,47.7,204.9,80.3,205.6,94.6z"/>
		<path class="st1" d="M141.7,226.9c2.9-2.7,5.5-5.8,7.7-9.1c1.7,0.2,3.5,0.3,5.2,0.3c8.7,0,16.8-2.3,23.9-6.3l10.3,29.3h16.3
			l-12.7-41c6.9-8.4,11-19.2,11-30.9c0-3.8-0.4-7.4-1.2-11l0,0c22.5,12,32.9-1.5,32.9-1.5c16.9-20.7-14-50.8-14-50.8
			c-6.5-7.1-15.2-13-25.8-13c-2.6-13.8-11-46-32.5-62.9c-6.1,27.6,6.6,57.4,12.7,69.7c-7.6,5.9-12.5,15.1-12.5,25.5
			c0,5.3,1.3,10.3,3.5,14.7h-55.4h1.6c-1.3-0.1-4.1,0-5.4,0c-27.8,0-50.3,22.5-50.3,50.3c0,9.5,2.7,18.5,7.3,26.1h0
			c0,0-8.4-9.1-21.5-10.3c0.3,21.3,12.8,31.6,30,34.5l36.4,0h54.2l-6.7-13.5h-24.5"/>
		<circle cx="215.4" cy="127.9" r="4.5"/>
	</g>
	<path class="st2" d="M141.3,226.9c6.8-5.3,11.2-13.5,11.2-22.8c0-15.9-12.9-28.8-28.8-28.8c-4.3,0-8.4,1-12.1,2.7"/>
</g>
</svg>
