<?xml version="1.0" encoding="utf-8"?>
<!-- Generator: Adobe Illustrator 20.1.0, SVG Export Plug-In . SVG Version: 6.00 Build 0)  -->
<svg version="1.1" id="Laag_1" xmlns="http://www.w3.org/2000/svg" xmlns:xlink="http://www.w3.org/1999/xlink" x="0px" y="0px"
	 viewBox="0 0 285.3 285.7" style="enable-background:new 0 0 285.3 285.7;" xml:space="preserve">
<style type="text/css">
	.st0{fill:#C2C6D9;}
	.st1{fill:#FFFFFF;}
</style>
<rect x="-0.2" class="st0" width="285.7" height="285.7"/>
<g>
	<path class="st1" d="M153.4,45.8c0,0-0.7,0.3-1.7,0.3c-0.3,0-0.5,0-0.8-0.1c-0.3-0.1-0.6-0.1-0.9-0.2c-0.3-0.1-0.6-0.2-1-0.3
		c-0.3-0.1-0.6-0.3-0.9-0.5c-0.3-0.2-0.6-0.4-0.9-0.6c-0.3-0.2-0.5-0.4-0.8-0.7c-0.2-0.2-0.4-0.5-0.6-0.7c-0.2-0.2-0.3-0.5-0.5-0.7
		c-0.3-0.4-0.5-0.8-0.6-1.1c-0.1-0.3-0.2-0.4-0.2-0.4s0.1,0.1,0.4,0.3c0.1,0.1,0.3,0.2,0.4,0.3c0.1,0.1,0.3,0.3,0.5,0.4
		c0.2,0.1,0.4,0.3,0.6,0.5c0.2,0.2,0.5,0.3,0.7,0.5c0.2,0.2,0.5,0.3,0.8,0.5c0.3,0.1,0.5,0.3,0.8,0.5c0.3,0.1,0.5,0.3,0.8,0.4
		c0.1,0.1,0.3,0.1,0.4,0.2c0.1,0.1,0.3,0.1,0.4,0.2c0.3,0.1,0.5,0.2,0.8,0.3c0.3,0.1,0.5,0.2,0.7,0.3
		C152.7,45.6,153.4,45.8,153.4,45.8z"/>
	<path class="st1" d="M144.5,35.7c0,0,0.5,0.3,1.4,0.8c0.2,0.1,0.4,0.2,0.6,0.4c0.2,0.1,0.5,0.2,0.7,0.4c0.2,0.1,0.5,0.2,0.8,0.4
		c0.3,0.1,0.5,0.3,0.8,0.3c0.3,0.1,0.5,0.2,0.8,0.3c0.1,0,0.3,0.1,0.4,0.1c0.1,0,0.3,0.1,0.4,0.1c0.3,0.1,0.5,0.1,0.8,0.2
		c0.3,0,0.5,0.1,0.7,0.1c0.2,0,0.4,0.1,0.6,0.1c0.2,0,0.4,0,0.5,0c0.3,0,0.4,0,0.4,0s-0.1,0.1-0.4,0.2c-0.1,0.1-0.3,0.1-0.5,0.2
		c-0.2,0.1-0.4,0.1-0.7,0.2c-0.1,0-0.3,0.1-0.4,0.1c-0.1,0-0.3,0-0.4,0c-0.1,0-0.3,0-0.4,0c-0.2,0-0.3,0-0.5,0c-0.3,0-0.6-0.1-1-0.2
		c-0.3-0.1-0.6-0.2-1-0.3c-0.3-0.1-0.6-0.3-0.9-0.4c-0.3-0.2-0.5-0.3-0.8-0.5c-0.5-0.4-0.9-0.8-1.2-1.1
		C144.7,36.3,144.5,35.7,144.5,35.7z"/>
	<path class="st1" d="M143.5,24.2c0,0,0,0.3,0.1,0.7c0,0.2,0.1,0.5,0.2,0.8c0.1,0.3,0.2,0.6,0.3,1c0.1,0.4,0.3,0.7,0.4,1.1
		c0.2,0.4,0.4,0.8,0.6,1.2c0.2,0.4,0.5,0.8,0.7,1.2c0.3,0.4,0.5,0.8,0.9,1.2c0.3,0.4,0.6,0.8,0.9,1.2c0.3,0.4,0.6,0.8,1,1.1
		c0.3,0.3,0.6,0.7,0.9,1c0.3,0.3,0.6,0.6,0.9,0.9c0.3,0.3,0.5,0.5,0.8,0.7c0.2,0.2,0.4,0.4,0.6,0.6c0.3,0.3,0.5,0.5,0.5,0.5
		s-0.2-0.1-0.7-0.3c-0.2-0.1-0.5-0.2-0.7-0.4c-0.3-0.1-0.6-0.3-0.9-0.6c-0.3-0.2-0.7-0.5-1.1-0.7c-0.4-0.3-0.7-0.6-1.1-0.9
		c-0.4-0.3-0.7-0.7-1.1-1.1c-0.4-0.4-0.7-0.8-1-1.2c-0.3-0.4-0.6-0.9-0.9-1.3c-0.3-0.5-0.5-0.9-0.7-1.4c-0.2-0.5-0.4-0.9-0.5-1.4
		c-0.1-0.4-0.2-0.9-0.3-1.3c0-0.4-0.1-0.8-0.1-1.1c0-0.3,0-0.6,0-0.8C143.4,24.5,143.5,24.2,143.5,24.2z"/>
	<path class="st1" d="M145.7,10.7c0,0,0,0.1-0.1,0.3c-0.1,0.2-0.1,0.4-0.3,0.7c-0.1,0.3-0.2,0.7-0.3,1.2c-0.1,0.5-0.1,1-0.2,1.5
		c0,0.6-0.1,1.2,0,1.8c0,0.6,0.2,1.3,0.3,2c0.1,0.3,0.2,0.7,0.3,1c0.1,0.3,0.2,0.7,0.3,1c0.1,0.3,0.3,0.7,0.4,1
		c0.1,0.3,0.3,0.6,0.5,1l0.5,1c0.2,0.3,0.4,0.6,0.6,0.9c0.2,0.3,0.4,0.6,0.6,0.9c0.2,0.3,0.5,0.6,0.7,0.8c0.5,0.5,0.8,1.1,1.3,1.6
		c0.5,0.5,0.9,0.9,1.3,1.4c0.4,0.4,0.8,0.8,1.1,1.1c0.3,0.3,0.6,0.6,0.9,0.9c0.5,0.5,0.7,0.8,0.7,0.8s-0.4-0.2-1-0.5
		c-0.3-0.2-0.7-0.4-1.1-0.6c-0.4-0.3-0.9-0.5-1.4-0.9c-0.5-0.4-1-0.8-1.5-1.2c-0.6-0.4-1.1-1-1.6-1.5c-0.3-0.3-0.5-0.6-0.8-0.8
		c-0.2-0.3-0.5-0.6-0.7-1c-0.2-0.3-0.5-0.7-0.7-1c-0.2-0.4-0.4-0.7-0.6-1.1c-0.2-0.4-0.4-0.7-0.6-1.1c-0.1-0.4-0.3-0.8-0.4-1.2
		c-0.2-0.4-0.2-0.8-0.3-1.2c-0.1-0.4-0.2-0.8-0.2-1.2c-0.1-0.8-0.1-1.5,0-2.3c0-0.7,0.2-1.4,0.3-2c0.2-0.6,0.4-1.1,0.6-1.6
		c0.2-0.5,0.5-0.8,0.6-1.1C145.4,11,145.7,10.7,145.7,10.7z"/>
	<path class="st1" d="M128.3,87.4c0,0,0.2-0.1,0.4-0.3c0.3-0.2,0.7-0.5,1.2-0.9c0.5-0.4,1.1-0.9,1.7-1.5c0.7-0.6,1.4-1.3,2.1-2.1
		c0.7-0.8,1.5-1.7,2.3-2.6c0.8-1,1.5-2,2.2-3.2c0.4-0.5,0.7-1.2,1-1.8c0.4-0.6,0.7-1.2,1-1.8c0.2-0.3,0.3-0.6,0.5-0.9l0.4-1
		c0.3-0.7,0.6-1.3,0.8-2c0.5-1.3,0.9-2.7,1.4-4.1c0.5-1.4,1-2.7,1.5-4c0.5-1.3,1.1-2.5,1.7-3.6c0.6-1.1,1.2-2.2,1.8-3.1
		c0.6-0.9,1.2-1.8,1.8-2.5c0.6-0.7,1.1-1.3,1.6-1.7c0.5-0.5,0.9-0.8,1.2-0.9c0.3-0.2,0.5-0.2,0.5-0.2s-0.2,0.1-0.4,0.3
		c-0.2,0.2-0.6,0.6-1,1.1c-0.4,0.5-0.8,1.1-1.3,1.9c-0.5,0.8-0.9,1.6-1.4,2.6c-0.2,0.5-0.5,1-0.7,1.5c-0.2,0.5-0.5,1.1-0.7,1.7
		c-0.2,0.6-0.5,1.2-0.7,1.8c-0.2,0.6-0.5,1.2-0.7,1.9c-0.5,1.3-0.9,2.6-1.3,4c-0.4,1.4-0.9,2.8-1.3,4.2c-0.2,0.7-0.6,1.4-0.9,2.1
		l-0.4,1c-0.2,0.3-0.3,0.7-0.5,1c-0.3,0.7-0.7,1.3-1.1,1.9c-0.4,0.6-0.7,1.2-1.2,1.8c-0.8,1.2-1.7,2.2-2.5,3.1
		c-0.5,0.5-0.9,0.9-1.3,1.3c-0.4,0.4-0.9,0.8-1.3,1.2c-0.4,0.4-0.8,0.7-1.2,1c-0.4,0.3-0.8,0.6-1.2,0.8c-0.7,0.5-1.4,0.9-2,1.2
		c-0.6,0.3-1,0.5-1.3,0.7C128.5,87.3,128.3,87.4,128.3,87.4z"/>
	<path class="st1" d="M171.8,88.3c0,0,0.6,0.9,1.6,2.6c0.5,0.9,1.1,1.9,1.7,3.1c0.6,1.2,1.3,2.6,2,4.1c0.7,1.5,1.4,3.2,2.1,5
		c0.7,1.8,1.4,3.7,2.1,5.7c0.6,2,1.3,4.1,1.8,6.3c0.6,2.2,1,4.4,1.4,6.6c0.2,1.1,0.3,2.2,0.5,3.4c0.1,1.1,0.3,2.2,0.4,3.3
		c0.1,1.1,0.2,2.2,0.2,3.3c0,1.1,0.1,2.2,0,3.2c0,1.1,0,2.1-0.1,3.1c0,0.5-0.1,1-0.1,1.5c0,0.5-0.1,1-0.2,1.5
		c-0.1,1-0.2,1.9-0.4,2.8c-0.2,0.9-0.3,1.8-0.5,2.6c-0.2,0.8-0.4,1.6-0.6,2.4c-0.2,0.7-0.4,1.4-0.7,2.1c-0.4,1.3-0.9,2.4-1.3,3.3
		c-0.4,0.9-0.8,1.6-1,2.1c-0.2,0.5-0.4,0.7-0.4,0.7s0.3-1.1,0.9-2.9c0.1-0.5,0.2-1,0.4-1.6c0.1-0.6,0.3-1.2,0.4-1.8
		c0.1-0.7,0.3-1.4,0.4-2.1c0.1-0.7,0.2-1.5,0.3-2.4c0.1-0.8,0.2-1.7,0.3-2.6c0-0.4,0.1-0.9,0.1-1.4c0-0.5,0-0.9,0.1-1.4
		c0-0.5,0.1-0.9,0.1-1.4c0-0.5,0-1,0-1.5c0-0.5,0-1,0-1.5c0-0.5,0-1,0-1.5c0-2.1-0.3-4.2-0.5-6.3c-0.1-1.1-0.3-2.2-0.4-3.2
		c-0.2-1.1-0.3-2.2-0.5-3.3c-0.4-2.2-0.8-4.3-1.3-6.5c-0.5-2.1-1-4.2-1.6-6.2c-0.6-2-1.1-3.9-1.7-5.7c-0.6-1.8-1.2-3.5-1.7-5.1
		c-1.1-3.1-2.1-5.7-2.8-7.6c-0.4-0.9-0.7-1.6-0.9-2.1C171.9,88.6,171.8,88.3,171.8,88.3z"/>
	<path class="st1" d="M122.6,118.2c0,0,0,0.1,0,0.4c0,0.3,0,0.6,0,1.1c0,0.5,0,1,0.1,1.7c0.1,0.6,0.1,1.4,0.2,2.2
		c0.1,0.8,0.2,1.6,0.3,2.6c0.1,0.9,0.3,1.8,0.4,2.8c0.2,1,0.4,2,0.6,3c0.2,1,0.5,2,0.8,3c0.1,0.5,0.3,1,0.4,1.5
		c0.2,0.5,0.3,1,0.5,1.5c0.2,0.5,0.3,1,0.5,1.4c0.2,0.5,0.4,0.9,0.6,1.4c0.2,0.5,0.4,0.9,0.6,1.3c0.2,0.4,0.4,0.8,0.6,1.2
		c0.2,0.4,0.4,0.8,0.6,1.2c0.2,0.4,0.4,0.7,0.6,1.1c0.4,0.7,0.8,1.3,1.1,1.9c0.4,0.5,0.7,1,0.9,1.4c0.5,0.8,0.8,1.2,0.8,1.2
		s-0.4-0.4-1-1.1c-0.3-0.3-0.7-0.8-1.1-1.3c-0.4-0.5-0.8-1.1-1.3-1.8c-0.2-0.3-0.5-0.7-0.7-1c-0.2-0.4-0.4-0.8-0.7-1.2
		c-0.2-0.4-0.5-0.8-0.7-1.2c-0.3-0.4-0.4-0.9-0.7-1.3c-0.2-0.5-0.4-0.9-0.7-1.4c-0.2-0.5-0.4-1-0.6-1.5c-0.2-0.5-0.4-1-0.6-1.5
		c-0.2-0.5-0.3-1-0.5-1.6c-0.3-1-0.5-2.1-0.8-3.1c-0.1-0.5-0.2-1-0.3-1.6c-0.1-0.5-0.2-1-0.2-1.5c-0.1-1-0.2-2-0.2-2.9
		c0-0.5,0-0.9-0.1-1.3c0-0.4,0-0.9,0-1.3c0-0.8,0.1-1.5,0.1-2.2c0.1-0.7,0.1-1.2,0.2-1.7c0.1-0.5,0.1-0.8,0.2-1.1
		C122.6,118.3,122.6,118.2,122.6,118.2z"/>
	<path class="st1" d="M130,152.9c-1.7-1.5-3.3-3.1-4.7-4.9c-1.4-1.8-2.7-3.7-3.8-5.6c-1.1-2-2.2-4-3-6.2c-0.4-1.1-0.8-2.2-1.1-3.2
		c-0.2-0.6-0.3-1.1-0.5-1.7l-0.4-1.6c-0.3-1.1-0.5-2.2-0.7-3.3c-0.2-1.1-0.4-2.2-0.6-3.4c-0.2-1.1-0.3-2.3-0.4-3.4
		c-0.1-1.1-0.2-2.3-0.2-3.4c-0.1-1.1-0.1-2.3-0.1-3.4c0-1.1,0-2.3,0.1-3.4c0.1-1.1,0.2-2.3,0.3-3.4c0.1-1.1,0.3-2.3,0.6-3.4l0-0.1
		l0-0.1c0.6-1.4,1.2-2.9,1.8-4.3c0.3-0.7,0.7-1.4,1-2.1c0.4-0.7,0.7-1.4,1.2-2.1c0.5-0.7,1.2-1.3,2-1.7c0.8-0.4,2-0.5,2.9-0.1
		c0.9,0.5,1.5,1.2,1.8,2c0.4,0.8,0.6,1.5,0.8,2.3c0.2,0.8,0.3,1.6,0.4,2.4c0,0.8,0,1.6-0.1,2.4c-0.1,0.8-0.3,1.6-0.4,2.3
		c-0.1,0.4-0.2,0.8-0.3,1.1c-0.1,0.4-0.2,0.7-0.3,1.1c-0.2,0.7-0.5,1.5-0.8,2.2c-0.3,0.7-0.6,1.4-0.9,2.1l-0.9,2.1l-1,2.1
		c0.5-1.4,1-2.9,1.5-4.3c0.2-0.7,0.5-1.4,0.7-2.2c0.2-0.7,0.4-1.5,0.6-2.2c0.1-0.4,0.2-0.7,0.3-1.1c0.1-0.4,0.2-0.7,0.2-1.1
		c0.1-0.7,0.3-1.5,0.3-2.2c0.1-0.7,0-1.5,0-2.2c-0.1-0.7-0.2-1.4-0.5-2.1c-0.2-0.7-0.5-1.4-0.8-2c-0.3-0.6-0.8-1.1-1.3-1.3
		c-0.5-0.2-1-0.2-1.5,0.1c-0.5,0.3-1,0.8-1.4,1.3c-0.4,0.5-0.7,1.2-1,1.9c-0.3,0.7-0.6,1.4-0.9,2.1c-0.6,1.4-1.2,2.8-1.7,4.2l0-0.1
		c-0.2,1-0.4,2.1-0.5,3.2c-0.1,1.1-0.2,2.2-0.3,3.3c-0.1,1.1-0.1,2.2-0.1,3.3c0,1.1,0,2.2,0.1,3.3c0,1.1,0.1,2.2,0.2,3.3
		c0.1,1.1,0.2,2.2,0.4,3.3c0.2,1.1,0.3,2.2,0.5,3.3c0.2,1.1,0.4,2.2,0.6,3.3l0.3,1.7c0.1,0.5,0.2,1.1,0.4,1.6c0.3,1.1,0.6,2.1,1,3.2
		c0.7,2.1,1.6,4.2,2.6,6.1c1,2,2.1,3.9,3.4,5.8c0.6,0.9,1.3,1.8,2,2.7C128.5,151.2,129.2,152.1,130,152.9z"/>
	<path class="st1" d="M179,70.6c0,0,0.2,1,0.1,2.5c0,0.4,0,0.8-0.1,1.2c-0.1,0.4-0.1,0.9-0.3,1.3c-0.1,0.5-0.2,0.9-0.4,1.4
		c-0.2,0.5-0.4,0.9-0.6,1.4c-0.3,0.4-0.5,0.9-0.8,1.3c-0.3,0.4-0.6,0.8-0.9,1.2c-0.3,0.4-0.6,0.7-1,1c-0.3,0.3-0.7,0.6-1,0.7
		c-0.3,0.2-0.6,0.4-0.9,0.5c-0.3,0.1-0.5,0.2-0.8,0.3c-0.4,0.1-0.7,0.2-0.7,0.2s0.2-0.2,0.5-0.4c0.2-0.1,0.4-0.3,0.6-0.5
		c0.2-0.2,0.5-0.4,0.7-0.7c0.3-0.2,0.5-0.5,0.8-0.8c0.3-0.3,0.5-0.6,0.8-1c0.3-0.3,0.5-0.8,0.7-1.1c0.3-0.4,0.4-0.8,0.7-1.2
		c0.2-0.4,0.4-0.9,0.6-1.3c0.2-0.4,0.4-0.9,0.5-1.3c0.1-0.4,0.3-0.8,0.4-1.2c0.1-0.4,0.2-0.8,0.3-1.1c0.2-0.7,0.3-1.3,0.4-1.7
		C179,70.8,179,70.6,179,70.6z"/>
	<path class="st1" d="M179.8,53.5c0,0,0-0.2,0-0.6c0-0.4-0.1-1-0.2-1.8c-0.1-0.4-0.2-0.8-0.4-1.2c-0.2-0.4-0.3-0.9-0.6-1.4
		c-0.1-0.2-0.2-0.5-0.4-0.7c-0.2-0.2-0.3-0.5-0.5-0.7c-0.3-0.5-0.7-1-1.1-1.5c-0.9-1-1.8-2-3-2.9c-0.3-0.2-0.6-0.5-0.9-0.7
		c-0.3-0.2-0.6-0.4-0.9-0.7c-0.3-0.2-0.6-0.5-1-0.7c-0.3-0.2-0.7-0.4-1-0.6c-1.4-0.9-2.9-1.7-4.4-2.7c-1.5-1-3-2-4.4-3.2
		c-1.4-1.1-2.8-2.4-4-3.7c-1.3-1.3-2.4-2.7-3.3-4.2c-0.9-1.5-1.7-3-2.1-4.6c-0.5-1.5-0.6-3.1-0.4-4.5c0.1-1.4,0.6-2.6,1.1-3.6
		c0.2-0.5,0.5-0.9,0.8-1.4c0.3-0.4,0.5-0.7,0.8-1.1c0.3-0.3,0.5-0.6,0.7-0.8c0.2-0.2,0.4-0.4,0.6-0.5c0.3-0.3,0.5-0.4,0.5-0.4
		s-0.1,0.2-0.4,0.5c-0.1,0.2-0.3,0.4-0.5,0.6c-0.2,0.3-0.4,0.5-0.6,0.9c-0.2,0.3-0.4,0.7-0.6,1.1c-0.2,0.4-0.4,0.9-0.6,1.4
		c-0.4,1-0.6,2.1-0.7,3.4c0,1.3,0.2,2.6,0.7,4c0.5,1.4,1.2,2.7,2.1,4.1c0.9,1.3,2,2.6,3.2,3.8c1.2,1.2,2.5,2.4,3.9,3.5
		c1.4,1.1,2.8,2.1,4.2,3.1c0.7,0.5,1.4,0.9,2.1,1.4c0.4,0.2,0.7,0.5,1.1,0.7c0.4,0.2,0.7,0.5,1.1,0.7c0.4,0.2,0.7,0.5,1.1,0.7
		c0.3,0.3,0.7,0.5,1,0.8c0.3,0.3,0.7,0.5,0.9,0.8c0.3,0.3,0.6,0.5,0.9,0.8c0.6,0.5,1.1,1.1,1.6,1.6c0.5,0.6,0.9,1.2,1.3,1.7
		c0.8,1.2,1.4,2.3,1.7,3.3c0.1,0.3,0.2,0.5,0.3,0.8c0.1,0.3,0.1,0.5,0.2,0.7c0.1,0.5,0.2,0.9,0.2,1.3c0.1,0.8,0,1.4,0,1.8
		C179.9,53.2,179.8,53.5,179.8,53.5z"/>
	<path class="st1" d="M170.4,138.2c0,0,0.2,0.2,0.6,0.5c0.4,0.3,0.9,0.8,1.4,1.5c0.3,0.3,0.5,0.7,0.8,1.1c0.3,0.4,0.5,0.9,0.8,1.3
		c0.2,0.5,0.5,1,0.7,1.5c0.2,0.5,0.4,1.1,0.5,1.6c0.1,0.6,0.3,1.1,0.4,1.7c0.1,0.5,0.2,1.1,0.2,1.6c0,0.5,0.1,1,0.1,1.5
		c0,0.5,0,0.9,0,1.4c0,0.4,0,0.8-0.1,1.1c0,0.3-0.1,0.6-0.1,0.9c-0.1,0.5-0.1,0.8-0.1,0.8s0-0.3-0.1-0.8c0-0.2-0.1-0.5-0.1-0.9
		c0-0.3-0.1-0.7-0.1-1.1c-0.1-0.4-0.1-0.8-0.2-1.3c-0.1-0.5-0.2-0.9-0.2-1.4c-0.1-0.5-0.2-1-0.3-1.5c-0.1-0.5-0.3-1-0.4-1.6
		c-0.2-0.5-0.3-1-0.5-1.5c-0.2-0.5-0.3-1-0.5-1.5c-0.2-0.5-0.4-0.9-0.6-1.3c-0.2-0.4-0.4-0.8-0.6-1.2c-0.4-0.7-0.7-1.3-1-1.7
		C170.6,138.4,170.4,138.2,170.4,138.2z"/>
	<path class="st1" d="M96.9,165.5c0,0,0.5-0.2,1.3-0.4c0.4-0.1,1-0.2,1.6-0.3c0.6-0.1,1.3-0.2,2.1-0.3c0.4,0,0.8,0,1.2-0.1
		c0.4,0,0.8,0,1.3,0.1c0.9,0.1,1.8,0.2,2.8,0.5c1,0.2,1.9,0.6,2.8,1c0.9,0.4,1.8,0.9,2.7,1.5c0.9,0.5,1.7,1.1,2.5,1.6
		c0.8,0.5,1.6,0.9,2.5,1.3c1.7,0.7,3.3,1.2,4.8,1.4c1.5,0.2,2.7,0.3,3.6,0.4c0.9,0,1.4,0.1,1.4,0.1s-0.1,0-0.4,0.1
		c-0.2,0-0.6,0.1-1,0.2c-0.4,0.1-1,0.1-1.6,0.2c-0.6,0-1.3,0.1-2.1,0c-0.8,0-1.6-0.1-2.5-0.3c-0.9-0.2-1.8-0.4-2.7-0.8
		c-0.9-0.4-1.8-0.8-2.7-1.3c-0.9-0.5-1.7-1.1-2.6-1.6c-0.8-0.5-1.7-1-2.5-1.4c-0.9-0.4-1.7-0.8-2.6-1.1c-0.9-0.3-1.7-0.5-2.5-0.6
		c-0.4-0.1-0.8-0.1-1.2-0.2c-0.4,0-0.8-0.1-1.1-0.1c-0.4,0-0.7,0-1.1,0c-0.3,0-0.7,0-1,0c-0.6,0-1.1,0-1.6,0.1
		C97.4,165.5,96.9,165.5,96.9,165.5z"/>
	<path class="st1" d="M98.6,155.6c0,0,0.5-0.1,1.5-0.2c0.9-0.1,2.3-0.2,3.9-0.1c0.8,0,1.7,0.1,2.6,0.3c0.9,0.2,1.9,0.4,2.9,0.9
		c0.9,0.5,1.8,0.9,2.7,1.3c0.9,0.4,1.8,0.6,2.8,0.5c0.5,0,1-0.1,1.5-0.1c0.5-0.1,1-0.2,1.5-0.3c1-0.2,2.1-0.4,3.2-0.4
		c1.1,0,2.1,0.2,3.1,0.5c0.9,0.3,1.7,0.8,2.4,1.3c0.2,0.1,0.3,0.2,0.5,0.3c0.2,0.1,0.3,0.2,0.5,0.3c0.1,0.1,0.3,0.2,0.4,0.2
		c0.1,0.1,0.3,0.1,0.4,0.2c0.6,0.2,1.1,0.1,1.5-0.1c0.4-0.2,0.6-0.5,0.7-0.7c0.1-0.2,0.1-0.4,0.1-0.4s0,0.1-0.1,0.4
		c-0.1,0.2-0.2,0.6-0.6,1c-0.4,0.3-1.1,0.5-1.8,0.4c-0.2,0-0.4-0.1-0.5-0.1c-0.2,0-0.4-0.1-0.6-0.2c-0.2-0.1-0.4-0.1-0.6-0.2
		c-0.2-0.1-0.3-0.2-0.5-0.3c-0.7-0.4-1.4-0.7-2.3-1c-0.8-0.2-1.7-0.3-2.7-0.3c-0.9,0-1.9,0.3-2.9,0.5c-0.5,0.1-1.1,0.2-1.6,0.3
		c-0.6,0.1-1.1,0.1-1.7,0.2c-1.2,0.1-2.4-0.2-3.4-0.7c-1-0.4-1.9-1-2.8-1.5c-0.8-0.5-1.7-0.8-2.5-1c-0.9-0.2-1.7-0.4-2.5-0.5
		c-1.6-0.3-2.9-0.4-3.8-0.5C99.1,155.6,98.6,155.6,98.6,155.6z"/>
	<path class="st1" d="M140.9,159.2c0,0,0.3,0,0.8,0.1c0.5,0.1,1.1,0.2,1.9,0.5c0.4,0.1,0.8,0.3,1.3,0.5c0.4,0.2,0.9,0.4,1.3,0.7
		c0.2,0.1,0.4,0.3,0.7,0.5l0.3,0.3c0.1,0.1,0.2,0.2,0.3,0.3c0.4,0.4,0.8,0.7,1.1,1c0.4,0.3,0.8,0.6,1.2,0.8c0.4,0.2,0.8,0.5,1.2,0.6
		c0.4,0.1,0.8,0.2,1.2,0.3c0.2,0,0.4,0,0.6,0c0.2,0,0.4,0,0.6-0.1c0.2,0,0.4-0.1,0.5-0.1c0.2,0,0.3-0.1,0.5-0.1
		c0.3-0.1,0.6-0.2,0.8-0.3c0.4-0.2,0.7-0.3,0.7-0.3s-0.2,0.2-0.5,0.5c-0.2,0.2-0.4,0.3-0.7,0.5c-0.3,0.2-0.6,0.4-1,0.5
		c-0.2,0.1-0.4,0.2-0.6,0.2c-0.2,0-0.5,0.1-0.7,0.1c-0.5,0-1.1,0-1.6-0.1c-0.6-0.1-1.1-0.3-1.6-0.6c-0.5-0.3-1-0.6-1.4-1
		c-0.4-0.4-0.9-0.8-1.2-1.1c-0.2-0.2-0.3-0.4-0.5-0.5c-0.2-0.2-0.3-0.3-0.5-0.5c-0.7-0.6-1.5-1.1-2.2-1.5c-0.7-0.4-1.3-0.8-1.7-1
		C141.1,159.3,140.9,159.2,140.9,159.2z"/>
	<path class="st1" d="M139.8,171.2c0,0,0.3,0.2,0.7,0.5c0.5,0.3,1.1,0.8,1.9,1.2c0.4,0.2,0.8,0.5,1.3,0.7c0.2,0.1,0.5,0.2,0.7,0.3
		c0.2,0.1,0.5,0.2,0.8,0.3c0.3,0.1,0.5,0.2,0.8,0.2c0.3,0.1,0.5,0.1,0.8,0.2l0.4,0.1l0.4,0l0.4,0l0.4-0.1l0.4,0l0.4-0.1l0.4-0.1
		c0.1,0,0.3-0.1,0.4-0.2c0.6-0.2,1.1-0.4,1.7-0.6c0.5-0.2,1-0.4,1.5-0.7c0.5-0.2,1-0.4,1.4-0.6c0.5-0.2,0.9-0.3,1.4-0.3
		c0.4,0,0.8,0,1.1,0.1c0.3,0.1,0.5,0.1,0.6,0.2c0.1,0.1,0.2,0.1,0.2,0.1s-0.1,0-0.2,0c-0.1,0-0.4,0-0.6,0c-0.3,0-0.6,0.1-0.9,0.2
		c-0.3,0.1-0.7,0.3-1.1,0.5c-0.8,0.5-1.7,1.2-2.8,1.7c-0.5,0.3-1.1,0.6-1.7,0.8c-0.3,0.1-0.6,0.2-1,0.3l-0.5,0.1l-0.5,0.1l-0.5,0.1
		l-0.5,0c-0.2,0-0.4,0-0.5,0l-0.5-0.1c-0.2,0-0.3-0.1-0.5-0.1l-0.5-0.2c-0.3-0.1-0.6-0.2-0.9-0.4c-0.3-0.1-0.6-0.3-0.8-0.4
		c-0.3-0.1-0.5-0.3-0.7-0.5c-0.5-0.3-0.9-0.7-1.3-1c-0.4-0.3-0.7-0.6-0.9-0.9c-0.3-0.3-0.5-0.6-0.7-0.8
		C139.9,171.4,139.8,171.2,139.8,171.2z"/>
	<path class="st1" d="M169.6,158.1c0,0,0.3-0.1,0.8-0.1c0.5-0.1,1.2-0.1,2.1-0.1c0.4,0,0.9,0,1.4,0c0.5,0,1,0.1,1.5,0.1
		c1.1,0.1,2.2,0.4,3.3,0.6c0.5,0.2,1.1,0.3,1.6,0.5c0.5,0.2,1.1,0.4,1.5,0.6c0.5,0.2,1,0.5,1.4,0.7c0.4,0.3,0.8,0.5,1.2,0.8
		c0.4,0.3,0.7,0.5,0.9,0.7c0.3,0.2,0.5,0.5,0.7,0.6c0.4,0.4,0.5,0.6,0.5,0.6s-0.3-0.1-0.7-0.3c-0.2-0.1-0.5-0.2-0.8-0.4
		c-0.3-0.1-0.7-0.3-1.1-0.4c-0.4-0.2-0.8-0.3-1.2-0.5c-0.4-0.2-0.9-0.3-1.4-0.5c-0.5-0.2-1-0.3-1.5-0.5c-0.5-0.2-1-0.3-1.6-0.5
		c-0.5-0.1-1.1-0.3-1.6-0.4c-0.5-0.1-1-0.3-1.5-0.4c-1-0.2-2-0.5-2.8-0.6c-0.8-0.2-1.5-0.4-2-0.5
		C169.9,158.2,169.6,158.1,169.6,158.1z"/>
	<path class="st1" d="M168.2,171.2c0,0,0.2-0.3,0.7-0.6c0.2-0.2,0.5-0.4,0.9-0.6c0.4-0.2,0.8-0.4,1.2-0.7c0.5-0.2,1-0.4,1.6-0.6
		c0.3-0.1,0.6-0.2,0.9-0.2c0.3-0.1,0.6-0.1,0.9-0.2c0.3-0.1,0.7-0.1,1-0.1c0.3,0,0.7-0.1,1-0.1c0.7,0,1.4,0,2.1,0.1
		c0.7,0.1,1.4,0.2,2,0.4c0.3,0.1,0.7,0.2,1,0.3c0.2,0,0.3,0.1,0.5,0.1c0.2,0.1,0.3,0.1,0.5,0.2c0.6,0.2,1.2,0.4,1.7,0.7
		c0.5,0.3,1,0.5,1.5,0.8c0.2,0.1,0.4,0.2,0.6,0.3c0.2,0.1,0.4,0.3,0.5,0.4c0.3,0.2,0.6,0.4,0.9,0.6c0.5,0.3,0.7,0.6,0.7,0.6
		s-0.3-0.1-0.9-0.3c-0.3-0.1-0.6-0.2-1-0.4c-0.2-0.1-0.4-0.1-0.6-0.2c-0.2-0.1-0.4-0.1-0.7-0.2c-0.5-0.1-1-0.3-1.5-0.5
		c-0.5-0.1-1.1-0.3-1.7-0.4c-0.6-0.2-1.2-0.2-1.8-0.4c-0.6-0.2-1.3-0.2-1.9-0.3c-0.6-0.1-1.3-0.1-1.9-0.1c-0.6,0-1.3,0-1.8,0
		c-0.3,0-0.6,0.1-0.9,0.1c-0.3,0-0.6,0.1-0.8,0.1c-0.3,0-0.5,0.1-0.8,0.1c-0.3,0.1-0.5,0.1-0.7,0.1c-0.5,0.1-0.9,0.2-1.3,0.4
		c-0.4,0.1-0.7,0.2-1,0.3C168.5,171,168.2,171.2,168.2,171.2z"/>
	<path class="st1" d="M180.1,171.2c0,0,0.7,0.9,1.3,2.5c0.2,0.4,0.3,0.8,0.5,1.3c0.2,0.5,0.3,0.9,0.4,1.5c0.1,0.5,0.2,1.1,0.4,1.6
		c0.1,0.6,0.2,1.1,0.2,1.7c0,0.6,0.1,1.1,0.1,1.7c0,0.6,0,1.1-0.1,1.6c-0.1,0.5-0.1,1-0.2,1.5c-0.1,0.5-0.2,0.9-0.4,1.3
		c-0.1,0.4-0.3,0.8-0.4,1.1c-0.1,0.3-0.3,0.6-0.4,0.8c-0.2,0.4-0.4,0.7-0.4,0.7s0-0.3,0.2-0.8c0.1-0.2,0.1-0.5,0.2-0.8
		c0-0.3,0.1-0.7,0.2-1.1c0.1-0.4,0.1-0.8,0.1-1.3c0.1-0.5,0.1-1,0.1-1.5c0-0.5,0-1,0-1.6c0-0.5-0.1-1.1-0.1-1.6
		c0-0.5-0.1-1.1-0.2-1.6c-0.1-0.5-0.1-1.1-0.2-1.6c-0.1-0.5-0.2-1-0.3-1.5c-0.1-0.5-0.2-0.9-0.3-1.3c-0.2-0.8-0.3-1.5-0.4-2
		C180.2,171.4,180.1,171.2,180.1,171.2z"/>
	<path class="st1" d="M172.9,176c0,0,0,0.1,0.1,0.2c0.1,0.1,0.1,0.3,0.2,0.5c0.1,0.2,0.2,0.5,0.3,0.8c0.1,0.3,0.2,0.7,0.2,1.1
		c0.1,0.4,0.1,0.8,0.1,1.3c0,0.5,0,0.9,0,1.4c-0.1,0.5-0.1,1-0.2,1.5c0,0.3-0.1,0.5-0.1,0.8l-0.2,0.8c-0.1,0.5-0.3,1-0.5,1.5
		c-0.1,0.5-0.3,1-0.5,1.4c-0.2,0.4-0.4,0.9-0.6,1.3c-0.2,0.4-0.4,0.8-0.6,1.1c-0.4,0.7-0.8,1.2-1,1.6c-0.3,0.4-0.4,0.6-0.4,0.6
		s0.1-0.3,0.2-0.7c0.1-0.4,0.3-1,0.6-1.8c0.1-0.4,0.2-0.8,0.4-1.2c0.2-0.4,0.3-0.9,0.4-1.3c0.1-0.2,0.1-0.5,0.2-0.7
		c0.1-0.2,0.1-0.5,0.2-0.7c0.1-0.5,0.3-1,0.4-1.4l0.2-0.7c0.1-0.2,0.1-0.5,0.2-0.7c0.1-0.5,0.2-1,0.3-1.4c0.1-0.5,0.1-0.9,0.2-1.3
		c0-0.4,0.1-0.8,0.1-1.2c0-0.4,0-0.7,0-1c0-0.3,0-0.6,0-0.8C173,176.3,172.9,176,172.9,176z"/>
	<path class="st1" d="M154.2,177.3c0,0,0.3,0.1,0.9,0.2c0.3,0.1,0.6,0.2,1,0.4c0.4,0.2,0.8,0.3,1.3,0.6c0.5,0.2,1,0.5,1.5,0.8
		c0.5,0.3,1,0.7,1.6,1c0.5,0.4,1.1,0.8,1.6,1.3c0.3,0.2,0.5,0.5,0.8,0.7c0.2,0.2,0.5,0.5,0.7,0.8c0.5,0.5,0.9,1.1,1.3,1.6
		c0.4,0.5,0.7,1.1,1.1,1.7c0.4,0.5,0.6,1.1,0.9,1.7c0.1,0.3,0.3,0.5,0.4,0.8c0.1,0.3,0.2,0.5,0.3,0.8c0.2,0.5,0.3,0.9,0.4,1.4
		c0.1,0.4,0.2,0.8,0.2,1.1c0.1,0.6,0.2,0.9,0.2,0.9s-0.2-0.3-0.4-0.9c-0.1-0.3-0.3-0.6-0.4-1c-0.2-0.4-0.4-0.8-0.6-1.2
		c-0.2-0.5-0.5-0.9-0.8-1.4c-0.3-0.5-0.6-1-1-1.5c-0.4-0.5-0.7-1.1-1.1-1.6c-0.4-0.5-0.8-1-1.3-1.5c-0.2-0.2-0.4-0.5-0.7-0.7
		c-0.2-0.2-0.5-0.5-0.7-0.7c-0.5-0.5-1-0.9-1.4-1.3c-0.5-0.4-0.9-0.8-1.4-1.1c-0.5-0.3-0.9-0.7-1.3-1c-0.8-0.6-1.6-1-2.1-1.3
		C154.5,177.4,154.2,177.3,154.2,177.3z"/>
	<path class="st1" d="M177,180.9c0,0,0.1,0.3,0.2,0.7c0.2,0.5,0.4,1.1,0.7,2c0.6,1.7,1.5,4.2,2.5,7.1c0.5,1.5,1,3.1,1.5,4.8
		c0.5,1.7,1,3.5,1.5,5.5c0.5,1.9,0.9,3.9,1.3,5.9c0.4,2,0.8,4.1,1.1,6.1c0.2,1,0.3,2.1,0.4,3.1c0.1,1,0.3,2.1,0.4,3.1
		c0.2,2.1,0.3,4.1,0.4,6.1c0,1,0,2,0,2.9c0,0.9-0.1,1.9-0.1,2.8c-0.1,0.9-0.2,1.8-0.2,2.6c-0.1,0.8-0.2,1.7-0.4,2.4
		c-0.2,0.8-0.3,1.5-0.5,2.2c-0.2,0.7-0.4,1.3-0.6,2c-0.2,0.6-0.4,1.2-0.6,1.7c-0.2,0.5-0.5,1-0.7,1.4c-0.4,0.8-0.8,1.4-1.1,1.8
		c-0.3,0.4-0.4,0.6-0.4,0.6s0.1-0.2,0.3-0.7c0.2-0.4,0.5-1.1,0.8-1.9c0.3-0.8,0.6-1.9,0.9-3.1c0.1-0.6,0.2-1.3,0.4-2
		c0.1-0.7,0.2-1.4,0.3-2.2c0.1-0.8,0.1-1.6,0.2-2.4c0-0.8,0.1-1.7,0.1-2.6c0-0.9,0-1.8,0-2.7c-0.1-0.9,0-1.9-0.1-2.8
		c-0.1-1.9-0.3-3.9-0.5-5.9c-0.2-2-0.5-4.1-0.8-6.1c-0.3-2-0.7-4.1-1-6.1c-0.4-2-0.8-4-1.2-5.9c-0.4-1.9-0.8-3.7-1.2-5.5
		c-0.4-1.7-0.8-3.4-1.1-4.9c-0.7-3-1.4-5.6-1.8-7.3c-0.2-0.9-0.4-1.6-0.5-2.1C177,181.1,177,180.9,177,180.9z"/>
	<path class="st1" d="M147.5,177.3c0,0-0.2,4.2-0.3,10.4c-0.1,3.1-0.1,6.7-0.1,10.6c0,1.9,0.1,3.9,0.1,6c0.1,2,0.2,4.1,0.3,6.1
		c0.1,2.1,0.3,4.1,0.5,6.1c0.2,2,0.4,4,0.7,5.9c0.3,1.9,0.6,3.7,0.9,5.5c0.4,1.7,0.7,3.4,1.1,4.8c0.2,0.8,0.4,1.5,0.6,2.1
		c0.1,0.3,0.2,0.7,0.3,1c0.1,0.3,0.2,0.6,0.3,0.9c0.2,0.6,0.4,1.2,0.6,1.7c0.2,0.5,0.4,1,0.6,1.4c0.3,0.8,0.7,1.5,0.9,1.9
		c0.2,0.4,0.3,0.7,0.3,0.7s-0.1-0.2-0.4-0.6c-0.1-0.2-0.3-0.5-0.5-0.8c-0.2-0.3-0.4-0.6-0.6-1c-0.2-0.4-0.5-0.8-0.7-1.3
		c-0.3-0.5-0.5-1-0.8-1.6c-0.1-0.3-0.3-0.6-0.4-0.9c-0.1-0.3-0.3-0.6-0.4-1c-0.3-0.7-0.5-1.4-0.8-2.1c-0.5-1.5-1-3.1-1.5-4.9
		c-0.4-1.7-0.9-3.6-1.2-5.5c-0.2-1-0.3-1.9-0.5-2.9c-0.1-0.5-0.1-1-0.2-1.5c-0.1-0.5-0.1-1-0.2-1.5c-0.2-2-0.4-4.1-0.5-6.2
		c-0.1-2.1-0.2-4.2-0.2-6.2c0-2,0-4.1,0-6c0-2,0.1-3.8,0.2-5.6c0.1-1.8,0.2-3.5,0.4-5C146.6,181.4,147.5,177.3,147.5,177.3z"/>
	<path class="st1" d="M155.9,217.7c0,0,0.2,0.3,0.4,0.8c0.2,0.5,0.5,1.3,0.8,2.2c0.1,0.5,0.3,1,0.4,1.5c0.1,0.5,0.2,1.1,0.3,1.7
		c0.1,0.6,0.2,1.2,0.2,1.8c0,0.6,0.1,1.3,0.1,1.9c0,0.6,0,1.3-0.1,1.9c0,0.6-0.1,1.3-0.2,1.9c-0.1,0.6-0.2,1.2-0.3,1.7
		c-0.1,0.3-0.1,0.5-0.2,0.8c-0.1,0.2-0.2,0.5-0.2,0.7c-0.1,0.5-0.3,0.9-0.4,1.2c-0.1,0.4-0.3,0.7-0.4,0.9c-0.2,0.5-0.4,0.8-0.4,0.8
		s0-0.3,0.1-0.9c0-0.3,0.1-0.6,0.2-1c0.1-0.4,0.1-0.8,0.2-1.3c0.1-0.5,0.1-1,0.2-1.5c0-0.5,0.1-1.1,0.1-1.7c0-0.6,0.1-1.2,0.1-1.8
		c0-0.6,0-1.2,0-1.9c0-0.6,0-1.2,0-1.9c0-0.6-0.1-1.2-0.1-1.8c-0.1-1.2-0.2-2.3-0.3-3.2C156.2,218.9,155.9,217.7,155.9,217.7z"/>
	<path class="st1" d="M166.6,225c0,0,0.7,0.6,1.3,1.8c0.2,0.3,0.3,0.6,0.5,1c0.1,0.4,0.3,0.7,0.4,1.2c0.1,0.4,0.3,0.8,0.3,1.3
		c0.1,0.4,0.2,0.9,0.2,1.3c0.1,0.5,0.1,0.9,0.1,1.4c0,0.4,0,0.9-0.1,1.3c0,0.4-0.1,0.8-0.2,1.2c0,0.4-0.2,0.7-0.2,1.1
		c-0.1,0.3-0.2,0.6-0.3,0.9c-0.1,0.3-0.2,0.5-0.3,0.7c-0.2,0.4-0.3,0.6-0.3,0.6s0-0.2,0-0.6c0-0.2,0-0.4,0-0.7c0-0.3,0-0.6,0-0.9
		c0-0.3,0-0.7,0-1c0-0.4,0-0.8,0-1.2c0-0.4,0-0.8-0.1-1.2c0-0.4,0-0.8-0.1-1.3c-0.1-0.4-0.1-0.8-0.2-1.3c-0.1-0.4-0.1-0.8-0.2-1.2
		c-0.1-0.4-0.2-0.8-0.2-1.1c-0.1-0.4-0.2-0.7-0.3-1C166.9,225.9,166.6,225,166.6,225z"/>
	<path class="st1" d="M174.9,231.9C174.9,231.9,175,231.9,174.9,231.9c0.1,0.1,0.1,0.2,0.2,0.3c0.1,0.2,0.3,0.5,0.5,0.8
		c0.4,0.7,0.8,1.6,1,2.7c0,0.3,0.1,0.5,0.1,0.8c0,0.3,0,0.5,0,0.8c0,0.3,0,0.5-0.1,0.7c0,0.2-0.1,0.4-0.1,0.6
		c-0.1,0.2-0.1,0.4-0.2,0.5c-0.1,0.2-0.1,0.3-0.2,0.4c-0.1,0.2-0.2,0.3-0.2,0.3s0-0.1,0-0.4c0-0.2-0.1-0.5-0.1-0.9
		c-0.1-0.4-0.1-0.8-0.2-1.2c-0.1-0.4-0.2-0.9-0.3-1.4c-0.2-1-0.4-1.9-0.4-2.7c0-0.4,0-0.7,0-1C174.9,232,175,231.9,174.9,231.9z"/>
	<path class="st1" d="M166.6,238.7c0,0,0.1,0.1,0.2,0.4c0.1,0.2,0.4,0.6,0.6,1.1c0.3,0.5,0.5,1.1,0.8,1.7c0.3,0.7,0.7,1.4,1,2.3
		c0.2,0.4,0.3,0.9,0.5,1.3c0.2,0.5,0.3,1,0.5,1.5c0.3,1,0.6,2.1,0.9,3.2c0.1,0.6,0.2,1.1,0.4,1.7c0.1,0.6,0.3,1.2,0.3,1.8
		c0.1,1.2,0.4,2.4,0.4,3.6c0,0.6,0.1,1.2,0.1,1.8c0,0.6,0,1.2,0,1.8c0,0.6,0,1.2,0,1.8c-0.1,0.6-0.1,1.2-0.2,1.8
		c-0.1,0.6-0.1,1.1-0.2,1.7c-0.1,0.5-0.2,1.1-0.3,1.6c-0.1,0.5-0.2,1-0.3,1.5c-0.1,0.5-0.3,0.9-0.4,1.4c-0.3,0.9-0.5,1.7-0.7,2.4
		c-0.3,0.7-0.6,1.3-0.8,1.8c-0.4,1-0.7,1.5-0.7,1.5s0.2-0.6,0.4-1.6c0.1-0.5,0.3-1.1,0.5-1.8c0.2-0.7,0.3-1.5,0.5-2.4
		c0.1-0.4,0.2-0.9,0.3-1.4c0.1-0.5,0.1-1,0.2-1.5c0.1-0.5,0.1-1,0.2-1.6c0-0.5,0.1-1.1,0.1-1.7c0-0.6,0.1-1.1,0.1-1.7
		c0-0.6,0-1.2,0-1.8c0-0.6,0-1.2,0-1.8c0-0.6-0.1-1.2-0.1-1.8c0-1.2-0.3-2.4-0.4-3.6c-0.2-1.2-0.4-2.3-0.6-3.4
		c-0.3-1.1-0.4-2.2-0.7-3.2c-0.1-0.5-0.3-1-0.4-1.5c-0.1-0.5-0.3-0.9-0.4-1.4c-0.2-0.9-0.5-1.7-0.7-2.4c-0.3-0.7-0.4-1.3-0.6-1.8
		c-0.2-0.5-0.3-0.9-0.4-1.2C166.7,238.9,166.6,238.7,166.6,238.7z"/>
	<path class="st1" d="M174.9,241.5c0,0,0.2,0.4,0.4,1c0.1,0.3,0.2,0.7,0.4,1.2c0.1,0.5,0.3,1,0.4,1.6c0.3,1.2,0.5,2.5,0.6,4
		c0,0.7,0.1,1.5,0.1,2.3c0,0.8,0,1.6-0.1,2.4c0,0.8-0.1,1.6-0.2,2.4c-0.1,0.8-0.2,1.5-0.4,2.3c-0.1,0.7-0.3,1.4-0.5,2.1
		c-0.1,0.3-0.2,0.7-0.3,1c-0.1,0.3-0.2,0.6-0.3,0.9c-0.2,0.6-0.4,1.1-0.6,1.5c-0.2,0.4-0.4,0.8-0.5,1.1c-0.3,0.6-0.5,1-0.5,1
		s0.1-0.4,0.3-1.1c0.1-0.3,0.2-0.7,0.3-1.2c0.1-0.5,0.2-1,0.3-1.6c0.1-0.3,0.1-0.6,0.2-0.9c0.1-0.3,0.1-0.6,0.2-1
		c0.1-0.7,0.3-1.3,0.3-2.1c0.1-0.7,0.2-1.5,0.3-2.2c0.1-0.8,0.2-1.5,0.2-2.3c0.1-0.8,0.1-1.5,0.1-2.3c0-0.8,0-1.5,0-2.2
		c0-0.7,0-1.4-0.1-2.1c0-0.7-0.1-1.3-0.1-1.9C175.2,243.1,174.9,241.5,174.9,241.5z"/>
	<path class="st1" d="M139,173.3c0,0-0.3-0.3-0.8-0.7c-0.1-0.1-0.3-0.2-0.4-0.4c-0.1-0.1-0.3-0.3-0.4-0.5c-0.3-0.4-0.7-0.8-1-1.3
		c-0.2-0.2-0.3-0.5-0.5-0.8c-0.2-0.3-0.3-0.6-0.4-0.9c-0.3-0.6-0.5-1.3-0.8-2c-0.1-0.4-0.2-0.7-0.3-1.1c0-0.2-0.1-0.4-0.1-0.6
		l-0.1-0.6c-0.1-0.8-0.2-1.5-0.3-2.3c0-0.8,0-1.6,0-2.3c0-0.4,0.1-0.8,0.1-1.1c0-0.4,0.1-0.7,0.2-1.1c0.1-0.4,0.1-0.7,0.2-1.1
		c0.1-0.3,0.2-0.7,0.3-1c0.2-0.6,0.5-1.2,0.9-1.8c0.3-0.5,0.8-0.9,1.4-1c0.6-0.1,1,0.1,1.3,0.4c0.3,0.2,0.4,0.5,0.5,0.6
		c0.1,0.2,0.1,0.2,0.1,0.2s-0.1-0.1-0.2-0.2c-0.1-0.1-0.3-0.3-0.6-0.5c-0.3-0.2-0.6-0.2-1-0.1c-0.4,0.2-0.6,0.5-0.9,1
		c-0.1,0.2-0.2,0.5-0.3,0.8c0,0.1-0.1,0.3-0.1,0.4c0,0.1-0.1,0.3-0.1,0.5c-0.1,0.3-0.1,0.6-0.2,1c-0.1,0.3-0.1,0.7-0.2,1
		c-0.1,0.3-0.1,0.7-0.1,1.1c0,0.4-0.1,0.7-0.1,1.1c0,0.7,0,1.5,0,2.2c0,0.7,0.1,1.5,0.2,2.2c0,0.4,0.1,0.7,0.2,1.1
		c0.1,0.3,0.1,0.7,0.2,1c0.2,0.7,0.3,1.3,0.6,1.9c0.1,0.3,0.2,0.6,0.3,0.9c0.1,0.3,0.2,0.5,0.4,0.8c0.2,0.5,0.5,0.9,0.7,1.3
		c0.1,0.2,0.2,0.4,0.3,0.6c0.1,0.2,0.2,0.3,0.3,0.5C138.8,173,139,173.3,139,173.3z"/>
	<path class="st1" d="M134.5,157.2c0,0-0.2,0.3-0.5,0.7c-0.1,0.2-0.3,0.5-0.4,0.9c-0.2,0.3-0.3,0.8-0.4,1.2
		c-0.1,0.4-0.3,0.9-0.3,1.4c-0.1,0.5-0.1,1.1-0.2,1.6c0,0.6,0,1.2,0,1.8c0,0.6,0.1,1.2,0.2,1.8l0.1,0.9c0.1,0.3,0.1,0.6,0.2,0.9
		c0.1,0.3,0.1,0.6,0.2,0.9c0.1,0.3,0.2,0.6,0.3,0.8c0.2,0.5,0.3,1.1,0.5,1.6c0.2,0.5,0.4,1,0.6,1.4c0.2,0.4,0.3,0.8,0.5,1.2
		c0.2,0.4,0.3,0.7,0.4,0.9c0.2,0.5,0.3,0.8,0.3,0.8s-0.2-0.2-0.5-0.7c-0.2-0.2-0.4-0.5-0.6-0.8c-0.2-0.3-0.5-0.7-0.7-1.1
		c-0.2-0.4-0.5-0.9-0.8-1.4c-0.3-0.5-0.5-1-0.7-1.6c-0.1-0.3-0.2-0.6-0.3-0.9c-0.1-0.3-0.2-0.6-0.3-0.9c-0.1-0.3-0.2-0.6-0.3-0.9
		l-0.2-1c-0.1-0.6-0.1-1.3-0.2-2c0-0.3,0-0.6,0-1c0-0.3,0-0.6,0.1-0.9c0.1-0.6,0.2-1.2,0.4-1.7c0.1-0.5,0.4-1,0.6-1.5
		c0.2-0.4,0.5-0.8,0.7-1.1c0.2-0.3,0.5-0.6,0.6-0.8C134.2,157.3,134.5,157.2,134.5,157.2z"/>
	<path class="st1" d="M161.2,171.2c0,0-0.1-0.1-0.3-0.4c-0.1-0.1-0.2-0.3-0.4-0.5c-0.1-0.2-0.3-0.4-0.4-0.6
		c-0.1-0.2-0.3-0.5-0.5-0.8c-0.2-0.3-0.3-0.6-0.4-0.9c-0.1-0.3-0.3-0.7-0.4-1c-0.1-0.4-0.2-0.7-0.2-1.1c0-0.2,0-0.4-0.1-0.6
		c0-0.2,0-0.4,0-0.6c0-0.2,0-0.4,0.1-0.6c0-0.2,0.1-0.4,0.1-0.6c0.1-0.4,0.2-0.7,0.4-1c0.1-0.3,0.4-0.5,0.5-0.8
		c0.2-0.2,0.4-0.4,0.6-0.5c0.2-0.2,0.4-0.2,0.5-0.3c0.3-0.2,0.5-0.2,0.5-0.2s-0.1,0.1-0.4,0.4c-0.1,0.1-0.2,0.3-0.4,0.4
		c-0.1,0.2-0.3,0.4-0.4,0.6c-0.1,0.2-0.3,0.5-0.3,0.8c-0.1,0.3-0.2,0.6-0.2,0.9c0,0.3-0.1,0.6-0.1,1c0,0.2,0,0.3,0,0.5l0.1,0.5
		c0,0.3,0.1,0.7,0.2,1c0.1,0.3,0.2,0.7,0.3,1c0.1,0.3,0.2,0.6,0.3,0.9c0.1,0.3,0.2,0.6,0.3,0.8c0.1,0.3,0.2,0.5,0.3,0.7
		c0.1,0.2,0.2,0.4,0.2,0.5C161.1,171,161.2,171.2,161.2,171.2z"/>
	<path class="st1" d="M164.9,175.5l-0.6-1.1c-0.2-0.4-0.4-0.7-0.5-1.1l-0.4-1.1c-0.2-0.4-0.3-0.8-0.4-1.1l-0.3-1.2l-0.2-1.2
		c-0.1-0.4-0.1-0.8-0.1-1.2c0-0.4-0.1-0.8-0.1-1.2l0-1.2c0-0.4,0.1-0.8,0.1-1.2c0-0.4,0.1-0.8,0.2-1.2c0.1-0.4,0.2-0.8,0.3-1.2
		c0.1-0.4,0.2-0.8,0.3-1.2c0.1-0.4,0.3-0.8,0.4-1.1c0.2-0.4,0.3-0.7,0.5-1.1c0.2-0.4,0.4-0.7,0.6-1.1l0-0.1l0.1,0
		c0.2-0.1,0.5-0.2,0.7-0.2c0.2,0,0.5-0.1,0.7-0.1c0.2,0,0.5,0,0.7,0.1c0.1,0.1,0.2,0.1,0.3,0.2c0.1,0.1,0.2,0.1,0.3,0.2
		c-0.1-0.1-0.2-0.1-0.3-0.2c-0.1,0-0.2-0.1-0.3-0.1c-0.2,0-0.5,0-0.7,0c-0.2,0-0.4,0.1-0.6,0.2c-0.2,0.1-0.4,0.2-0.6,0.3l0.1-0.1
		c-0.3,0.7-0.6,1.4-0.9,2.1c-0.1,0.4-0.2,0.7-0.3,1.1c-0.1,0.4-0.2,0.7-0.3,1.1c-0.1,0.4-0.2,0.8-0.2,1.1c0,0.4-0.1,0.8-0.1,1.1
		l-0.1,1.2l0,1.2c0,0.4,0,0.8,0,1.2c0,0.4,0,0.8,0.1,1.2l0.1,1.2l0.2,1.1c0.1,0.4,0.1,0.8,0.2,1.1l0.3,1.1c0.1,0.4,0.2,0.8,0.3,1.1
		L164.9,175.5z"/>
	<path class="st1" d="M175.5,61c-0.2-0.5-0.5-1-0.7-1.6c-0.2-0.5-0.4-1.1-0.4-1.7c-0.1-0.6-0.1-1.2,0.1-1.8c0.2-0.6,0.5-1.2,0.9-1.6
		c0.2-0.2,0.5-0.4,0.8-0.6l0.4-0.2c0.1-0.1,0.3-0.1,0.5-0.2c0.6-0.2,1.3-0.3,1.9-0.2c0.7,0.1,1.3,0.4,1.8,0.8c0.5,0.4,1,0.8,1.3,1.3
		c0.4,0.5,0.7,1,0.9,1.6c0.3,0.6,0.4,1.1,0.6,1.6c0.2,0.5,0.4,1.1,0.5,1.7c0.1,0.6,0.2,1.2,0.2,1.8c0,0.6-0.1,1.2-0.2,1.8
		c-0.1,0.6-0.3,1.1-0.5,1.7c-0.2,0.5-0.4,1.1-0.7,1.6c-0.2,0.5-0.5,1-0.8,1.5l-0.5-0.3c0,0,0-0.1,0.1-0.1c0-0.1,0-0.1,0.1-0.2
		c0-0.1,0-0.3,0-0.4c-0.1-0.3-0.2-0.6-0.3-0.9c-0.2-0.3-0.4-0.6-0.6-0.8c-0.1-0.1-0.2-0.3-0.3-0.4l-0.4-0.4c0.3,0.2,0.6,0.4,0.9,0.6
		c0.3,0.2,0.5,0.5,0.8,0.8c0.2,0.3,0.4,0.6,0.5,1c0.1,0.2,0.1,0.4,0.1,0.6c0,0.1,0,0.2,0,0.3c0,0.1-0.1,0.2-0.1,0.3l-0.5-0.3
		c0.2-0.5,0.5-1,0.6-1.5c0.2-0.5,0.4-1,0.6-1.6c0.1-0.3,0.2-0.5,0.2-0.8c0.1-0.3,0.1-0.5,0.2-0.8c0.1-0.5,0.2-1.1,0.1-1.6
		c0-1-0.3-2-0.7-3.1c-0.2-0.5-0.4-1.1-0.6-1.5c-0.2-0.5-0.5-0.9-0.8-1.3c-0.6-0.8-1.4-1.5-2.3-1.7c-0.5-0.1-0.9-0.1-1.4,0.1
		l-0.3,0.1l-0.4,0.2c-0.2,0.1-0.4,0.3-0.6,0.4c-0.4,0.3-0.6,0.7-0.8,1.2c-0.2,0.5-0.2,1-0.2,1.5c0,0.5,0.1,1.1,0.2,1.6
		C175.2,59.9,175.4,60.4,175.5,61z"/>
	<path class="st1" d="M175.5,67.6c0,0,0.4,0.3,1,0.8c0.3,0.2,0.6,0.5,1,0.7c0.2,0.1,0.4,0.2,0.5,0.3c0.1,0,0.2,0.1,0.3,0.1
		c0.1,0,0.2,0.1,0.3,0.1c0.1,0,0.2,0,0.3,0c0.1,0,0.2,0,0.3,0c0.2,0,0.4-0.1,0.6-0.1c0.2-0.1,0.4-0.2,0.5-0.2
		c0.2-0.1,0.3-0.2,0.5-0.3c0.2-0.1,0.3-0.2,0.4-0.3c0.1-0.1,0.2-0.2,0.3-0.2c0.2-0.1,0.3-0.2,0.3-0.2s0,0.1-0.1,0.3
		c0,0.1-0.1,0.2-0.2,0.4c-0.1,0.2-0.2,0.3-0.3,0.5c-0.1,0.2-0.3,0.3-0.4,0.5c-0.2,0.2-0.4,0.3-0.6,0.5c-0.3,0.1-0.5,0.3-0.8,0.3
		c-0.2,0-0.3,0-0.5,0.1c-0.2,0-0.3,0-0.5,0c-0.3,0-0.6-0.2-0.9-0.3c-0.3-0.2-0.5-0.3-0.7-0.5c-0.4-0.4-0.7-0.8-0.9-1.1
		C175.5,68.2,175.5,67.6,175.5,67.6z"/>
	<path class="st1" d="M138.7,154c0,0-0.1,0.3-0.2,0.8c-0.2,0.5-0.3,1.2-0.5,2.1c-0.1,0.4-0.2,0.9-0.3,1.4c-0.1,0.5-0.2,1-0.3,1.6
		c-0.1,0.6-0.1,1.1-0.2,1.7c0,0.6-0.1,1.2-0.1,1.8c0,0.6,0,1.2,0,1.8c0,0.6,0,1.2,0.1,1.7c0.1,0.6,0.1,1.1,0.2,1.6
		c0.1,0.5,0.2,1,0.3,1.4c0.1,0.4,0.2,0.8,0.3,1.2c0.1,0.3,0.2,0.6,0.3,0.9c0.2,0.5,0.3,0.8,0.3,0.8s-0.1-0.3-0.4-0.7
		c-0.1-0.2-0.3-0.5-0.4-0.9c-0.1-0.3-0.3-0.7-0.5-1.2c-0.2-0.4-0.3-0.9-0.4-1.4c-0.2-0.5-0.2-1.1-0.3-1.6c-0.1-0.6-0.1-1.2-0.2-1.8
		c-0.1-0.6,0-1.2,0-1.8c0-0.6,0.1-1.2,0.1-1.8c0.1-0.6,0.2-1.2,0.3-1.8c0.2-1.1,0.5-2.2,0.8-3C138.1,155.1,138.7,154,138.7,154z"/>
	<path class="st1" d="M161.2,161.3c0,0-0.1,0.6-0.2,1.4c-0.1,0.4-0.1,0.9-0.2,1.4c-0.1,0.5-0.1,1.1-0.1,1.6c0,0.6,0,1.1,0,1.6
		c0,0.3,0,0.5,0,0.7c0,0.2,0.1,0.5,0.1,0.7c0,0.2,0.1,0.4,0.1,0.5c0,0.2,0.1,0.3,0.1,0.4c0.1,0.2,0.1,0.4,0.1,0.4s-0.1-0.1-0.2-0.3
		c-0.1-0.1-0.2-0.2-0.2-0.4c-0.1-0.2-0.2-0.3-0.3-0.5c-0.1-0.2-0.2-0.4-0.2-0.7c0-0.2-0.1-0.5-0.1-0.8c0-0.3-0.1-0.6-0.1-0.8
		c0-0.3,0-0.6,0-0.9c0.1-1.2,0.3-2.3,0.6-3.1C160.9,161.8,161.2,161.3,161.2,161.3z"/>
	<path class="st1" d="M167.6,158.5c0,0-0.1,0.2-0.4,0.6c-0.2,0.4-0.5,1-0.9,1.7c-0.2,0.4-0.3,0.7-0.5,1.2c-0.2,0.4-0.3,0.9-0.5,1.3
		c-0.2,0.5-0.3,1-0.4,1.5c-0.1,0.5-0.3,1-0.3,1.5c-0.1,0.5-0.2,1-0.2,1.5c0,0.3-0.1,0.5-0.1,0.8c0,0.3,0,0.5,0,0.7
		c0,0.2,0,0.5,0,0.7c0,0.2,0,0.5,0,0.7c0,0.2,0,0.4,0,0.7c0,0.2,0.1,0.4,0.1,0.6c0.1,0.4,0.1,0.8,0.2,1.1c0.1,0.3,0.1,0.6,0.2,0.8
		c0.1,0.5,0.2,0.7,0.2,0.7s-0.1-0.2-0.3-0.7c-0.1-0.2-0.2-0.5-0.3-0.8c-0.1-0.3-0.2-0.7-0.3-1.1c0-0.2-0.1-0.4-0.1-0.6
		c0-0.2-0.1-0.4-0.1-0.7c0-0.2-0.1-0.5-0.1-0.7c0-0.2,0-0.5,0-0.7c0-0.3,0-0.5,0-0.8c0-0.3,0-0.5,0.1-0.8c0-0.5,0.1-1.1,0.2-1.6
		c0.1-0.5,0.3-1.1,0.4-1.6c0.2-0.5,0.3-1,0.5-1.5c0.4-0.9,0.8-1.8,1.2-2.5c0.4-0.7,0.8-1.2,1.1-1.6
		C167.4,158.7,167.6,158.5,167.6,158.5z"/>
	<path class="st1" d="M165.1,53.8c0,0,0-0.1,0-0.2c0-0.1,0-0.2-0.1-0.4c-0.1-0.4-0.4-0.9-0.9-1.2c-0.3-0.1-0.6-0.2-0.9-0.2
		c-0.1,0-0.2,0-0.2,0c-0.1,0-0.2,0-0.3,0.1c-0.2,0-0.3,0.1-0.5,0.2c-0.3,0.2-0.5,0.4-0.7,0.7c-0.2,0.3-0.3,0.6-0.3,1
		c0,0.2,0,0.3,0.1,0.5c0,0.2,0.1,0.3,0.2,0.5c0.2,0.3,0.4,0.5,0.7,0.7c0.3,0.2,0.6,0.3,1,0.3c0.3,0,0.7-0.1,0.9-0.2
		c0.6-0.3,0.8-0.8,0.9-1.2c0.1-0.2,0.1-0.3,0.1-0.4C165.1,53.9,165.1,53.8,165.1,53.8z M165.1,53.8c0,0,0,0.1,0,0.2
		c0,0.1,0,0.2-0.1,0.4c-0.1,0.4-0.3,0.9-0.8,1.3c-0.3,0.2-0.6,0.4-1,0.5c-0.4,0.1-0.8,0.1-1.3-0.1c-0.4-0.2-0.9-0.4-1.2-0.9
		c-0.2-0.2-0.3-0.4-0.4-0.7c-0.1-0.2-0.1-0.5-0.1-0.8c0-0.5,0.2-1,0.5-1.5c0.3-0.4,0.7-0.7,1.2-0.9c0.2-0.1,0.4-0.1,0.7-0.1
		c0.1,0,0.2,0,0.3,0c0.1,0,0.2,0,0.3,0c0.4,0.1,0.7,0.3,1,0.5c0.5,0.4,0.8,1,0.9,1.3c0,0.2,0.1,0.3,0.1,0.4
		C165.1,53.8,165.1,53.8,165.1,53.8z"/>
</g>
</svg>
