<?xml version="1.0" encoding="utf-8"?>
<!-- Generator: Adobe Illustrator 20.1.0, SVG Export Plug-In . SVG Version: 6.00 Build 0)  -->
<svg version="1.1" id="Laag_1" xmlns="http://www.w3.org/2000/svg" xmlns:xlink="http://www.w3.org/1999/xlink" x="0px" y="0px"
	 viewBox="0 0 216.1 172.1" style="enable-background:new 0 0 216.1 172.1;" xml:space="preserve">
<style type="text/css">
	.st0{fill:#A1222F;}
</style>
<g>
	<path class="st0" d="M216.1,22.3c-7.9,3.4-16.4,4.6-25.4,5.6c7.9-5.9,11.9-7.8,18.2-19.8c-8.5,4.9-16.8,4.6-26.8,6.5
		C174.1,6.2,162.6,1,149.9,1c-24.4,0-44.2,19.2-44.2,42.9c0,3.4,0.4,6.6,1.2,9.8C70.2,52,37,34.1,15.2,8.1
		c-3.8,6.3-5.3,14.5-5.3,22.4c0,14.9,7.8,28,19.7,35.7c-7.2-0.2-14.1-2.2-20-5.4c0,0.2,0,0.4,0,0.5c0,20.8,15.2,38.1,35.4,42.1
		c-3.7,1-7.6,1.5-11.6,1.5c-2.9,0-5.6-0.3-8.3-0.8c5.6,17.1,21.1,31.1,40.4,31.5c-18.8,21-61.1,14.6-64.6,14.2
		c19.6,12.2,42.8,21.3,67.7,21.3c81.2,0,125.6-65.4,125.6-122.2c0-1.9,0-3.7-0.1-5.6C202.7,37.3,210.2,30.9,216.1,22.3z"/>
</g>
</svg>
