<?xml version="1.0" encoding="utf-8"?>
<!-- Generator: Adobe Illustrator 20.1.0, SVG Export Plug-In . SVG Version: 6.00 Build 0)  -->
<svg version="1.1" id="Laag_1" xmlns="http://www.w3.org/2000/svg" xmlns:xlink="http://www.w3.org/1999/xlink" x="0px" y="0px"
	 viewBox="0 0 286.1 286" style="enable-background:new 0 0 286.1 286;" xml:space="preserve">
<style type="text/css">
	.st0{fill:#A1222F;}
	.st1{fill:none;stroke:#FFFFFF;stroke-width:1.5;stroke-miterlimit:10;}
	.st2{fill:none;stroke:#FFFFFF;stroke-miterlimit:10;}
	.st3{fill:none;stroke:#FFFFFF;stroke-width:0.5;stroke-miterlimit:10;}
	.st4{fill:none;stroke:#FFFFFF;stroke-width:0.75;stroke-miterlimit:10;}
</style>
<rect x="0.4" y="0.3" class="st0" width="285.7" height="285.7"/>
<g>
	<path class="st1" d="M202.9,91c0,0,4.6-1.2,3.8-4.9c-0.8-3.6-1.4-15.6,1.1-17c-0.2-2.6-3.5-2.7-5.4-2.6c0,3.3,0,24.7,0,24.7
		L202.9,91z"/>
	<path class="st2" d="M206.8,86.8c0,0,3.9-4.6-0.5-14.3"/>
	<path class="st3" d="M189.4,91.4c0,0,2.6,4,1.7,5.7"/>
	<path class="st1" d="M202.4,91.2l-2.4,0.9c0,0-0.2,0.6,0,1c0.2,0.5,0.1,0.7-1.1,1c-1.3,0.3-13.6,5.1-14.3,5.7l-9.2-14.3"/>
	<path class="st1" d="M183.7,69.3c0,0,2.3-3.1,4-3.1c1.7-0.1,9.8-0.8,14.6,0.4"/>
	<path class="st4" d="M180.9,67.3"/>
	<path class="st2" d="M169.9,60.2"/>
	<path class="st2" d="M181.7,67l-2.3-13.3c0,0-0.1-1.6-2.4-1.7s-3.1-0.3-3.1-0.3s-0.4-0.1-1,0.3c-0.6,0.5-0.9,1.1-1-1.5
		c-0.1-2.6,0.8-1.1,0.8-1.1s0.7,1.3,1.9,1.4c1.2,0.2,3.8,0.4,3.8,0.4s1.7,0,2.3,3.9c0.6,3.9,2,11.8,2,11.8"/>
	<path class="st2" d="M170.1,57.7"/>
	<path class="st2" d="M173.6,77.4c0,0-0.2-0.6,0.5-1c0.7-0.4,7-5.4,7-5.4"/>
	<path class="st2" d="M173.6,81.9v2.7c0,0-0.1,1,2.6,1c2.7,0,4.7,0,4.7,0"/>
	<polygon class="st3" points="186.1,73.9 188.4,73.4 190.4,74.6 188.6,75 	"/>
	<polygon class="st3" points="190.4,76 192.1,76.9 193.5,76.2 191.8,75.2 	"/>
	<circle class="st3" cx="192.4" cy="93.1" r="0.6"/>
	<ellipse class="st3" cx="194.9" cy="88.3" rx="1.9" ry="2.9"/>
	<path class="st2" d="M180.9,85.6c0,0,8.5-0.5,9.8-2.4c1.4-2.3-2.7-6.4-4.7-7.7c-2-1.3-5.1-2.7-7.2-2.7"/>
	<path class="st3" d="M194.9,91.2l-2.3,0.5c0,0-3.2-2.4-0.4-6.5l2.8,0.2"/>
	<path class="st3" d="M192.3,85.2c0,0-4.5,0.1-4.9,3.2c-0.4,3.1,3.5,3.7,5.3,3.3"/>
	<path class="st4" d="M181.3,72.2c-1,0.1-0.8-0.4-0.4-0.5c0.4-0.1,0.3-0.6,0.3-0.6V67h2.6v4c0,0.3,0,0.6,0.2,0.6
		c0.3,0.1,1.1,0.6-0.4,0.6C182,72.2,181.3,72.2,181.3,72.2z"/>
	<path class="st4" d="M181.1,69.2c0,0-0.6-0.1-0.6,0.6s-0.1,1.6,0.3,1.4"/>
	<path class="st2" d="M181.1,67.6l-4.5-7.1c0,0-0.6-1.1-2.3-1.1l-2.3,0c0,0-0.8-0.1-1.1,0.3s-0.7,0.7-1,0.5"/>
	<path class="st2" d="M181.7,67l-4.1-7.1c0,0-0.4-1.2-2.4-1.2s-2.7-0.1-2.7-0.1s-1.2,0-1.3-0.5c-0.2-0.5-1-1-1.1-0.9"/>
	<ellipse class="st2" cx="173.3" cy="79.6" rx="2.9" ry="2.3"/>
	<path class="st3" d="M186.8,111.1c0,0-1.5,1.6-2.8-1.4c0,0-0.8-1.5-1.2-0.4c-0.3,0.9,3,5.6,5.2,4.4"/>
	<path class="st2" d="M219.7,140.8c0,0-4.3-1.2-7-6c-2.7-4.8-6.5-8-12.3-8.6c-5.8-0.6-7-0.9-7-0.9s-5.1-15.3-6.7-17.2
		c-1.6-1.8-2-4.7-1.6-5c0.5-0.3,5.5-2.4,7.3-1.6c1.8,0.8,1.8-0.2,1.8-0.2S220.2,129.4,219.7,140.8z"/>
	<path class="st2" d="M189.6,114.6c0,0-1.2-0.2-1.8-1.4s-0.7-2.2-1.2-2.3c-0.4-0.1,0-1.1,0.7-1.8"/>
	<path class="st4" d="M225.8,154.1c-1.4-0.1-6.2-3.4-6.2-3.4"/>
	<path class="st1" d="M219.7,140.8c0,0,2.6,10.9-5.4,21.3c-8,10.5-18.6,17-32.1,17.7v13.7c0,0,0.5,3.5,5.7,1.5
		c5.2-2,29.8-18,37.8-40.9c0,0,4.6-9.3,4.6-13.4c3.8-2.3,1.7-7.6,0-11c-1.7-3.4-9.3-14.7-35.2-29.7"/>
	<path class="st2" d="M196.7,99.2c0,0,22.9,13.3,28,20.8c0,0-2.7-5.4-3-5.4s-3.3-0.6-1.7-1.6c-0.6-3.4-14.5-16.3-14.5-16.3
		s0,1.2-1.3,1c-3.8-1.3-10.3,3-9.9,3.7"/>
	<path class="st4" d="M226.7,124.5c0,0,1-1-2.1-4.5"/>
	<path class="st2" d="M185.1,103.1c0,0,0.6-1.4,0-1.8c1.3-1,2.9-1.7,2.9-1.7s2.7,0.6,6.2-1c3.5-1.6,7.5-3.5,3.2-2.9l-1.2,0.3"/>
	<path class="st2" d="M197.3,95.7l5-0.6c0,0,1.8,1,2.8,2.2"/>
	<line class="st3" x1="188" y1="99.6" x2="187.3" y2="98.6"/>
	<line class="st3" x1="196.6" y1="97.5" x2="195.7" y2="95.3"/>
	<path class="st1" d="M193.4,125.3c0,0,0.7,14.3-1.5,18.4"/>
	<path class="st1" d="M148.6,152.7c0.6,0.1,0.6,1.4,0.6,1.4l0.6,6.8l-2.2-0.2v1h2.4l0.2,1.7l-2,0.1v1l2.2-0.1l0.1,1.6l-1.9,0.2v1.1
		l2-0.1c0,0,0.5,3.1,1,4.9c3.5,2.5,29.2,1,29.2,1c6.5,0.6,8.2-14.3,8.2-14.3"/>
	<ellipse transform="matrix(0.1753 -0.9845 0.9845 0.1753 8.0517 312.2845)" class="st2" cx="190.4" cy="151.3" rx="7.7" ry="1"/>
	<path class="st1" d="M144.5,145.6c0,1.2,0.6,2.6,2.1,2.9c1.6,0.5,2,1.4,2,4.2c-0.5,0.5-1.5,0.3-2.6,5.6s-7.6,2.5-7.6,2.5
		c-5.9-1.3-15-2.3-24.2-2.5c-8.4,0.4-9.9,10.2-9.9,10.2c-0.6,2.6,2.1,4.7,3.9,5.7c0.7,0.4,1.3,0.7,1.3,0.7l35.5,16.2l37.3,1.6"/>
	<path class="st3" d="M182.3,173.1c0,0-5.2,3.9,3.1,2.6c8.3-1.2,9.9-3.1,12.3,0.2"/>
	<circle class="st3" cx="179.5" cy="185.5" r="0.8"/>
	<path class="st3" d="M139.4,176.6l-1.3,4.8c-4.9-0.3-21.1-5.8-21.1-5.8l0.8-3"/>
	<line class="st3" x1="131.1" y1="175.3" x2="129.6" y2="179.5"/>
	<path class="st4" d="M104.5,168.2"/>
	<path class="st2" d="M182.3,179.8c2,0.3-55.4-0.9-77.8-11.8c0,0-24.6-7.4-50.5-4.8"/>
	<path class="st1" d="M229.9,143.7c0,0,19.2-3.5,30,6.5"/>
	<path class="st2" d="M263.2,159.6c0,0,1.5-0.4,0.5-3c-0.9-2.4-2.9-4.6-3.8-5.2s-0.2-1.8,1.1-0.6c1.2,1.2,5.9,7.1,5.9,9
		c0,1.9-1,1.8-3.2,1.9c-2.2,0-3.9-1.2-2-1.7C262.8,159.7,263.2,159.6,263.2,159.6z"/>
	<path class="st1" d="M261.2,161.1c0,0-0.7,0-1.8,0c-6,0-24.7-0.1-26.4,0c-1,0.1-6.7-0.6-19.1,15"/>
	<path class="st2" d="M129.9,184.2c0,0-10.9,2.7-17.1,9.7c-14.2-1.1-19.3-1.6-19.3-1.6l-9.2-7.1c0,0-2-2.3-8.3-2.8
		c-6.4-0.5-30.5-1.7-30.5-1.7s-3.1,0.9-4.9,2.1c-0.6,2.3-0.5,0.9-0.6,3c0,1.3,0.1,3.6,0.3,5.1c0.1,0.8,0.1,1.3,0.1,1.3
		s0,0.8,1.5,1.8s2.7,1.7,6.1,1.7c3.4,0,29.1,2.8,30.8,3.3c1.7,0.5,8.3,1.7,10.6,0l4.2-2.6l19.2,1.2c0,0,15.5-12.9,20.7-11.8"/>
	<path class="st2" d="M74,193.4l-10.4-0.9l-16-1.3c-0.8-0.1-1.4-0.8-1.4-1.6l0.3-3.6c0.1-0.8,0.8-1.4,1.6-1.4l10.6,0.9l0.1,0
		l15.7,1.3c0.8,0.1,1.4,0.8,1.4,1.6l-0.3,3.6C75.5,192.9,74.8,193.5,74,193.4z"/>
	<path class="st1" d="M78.9,131c24.9-2.7,42.7,7.3,48,10.2c5.3,2.9,16.5,4.3,17.6,2.3c1.9,1.7,4.7,0.4,4.7,0.4s2.3-18.5-7-22.3
		c-9.3-3.8-34.7,1.7-48.8-4.1c-8.8,4.8-32.3-3.4-39.3,6.4"/>
	<path class="st3" d="M93.4,117.5c0,0,11.1,9.6,10.7,14.8"/>
	<path class="st3" d="M88.7,118.8c0,0.3,8.8,4,9.2,12.5"/>
	<path class="st3" d="M68.5,126.4c0,0-6.4-4.9-11.2-5.3"/>
	<path class="st3" d="M146.8,144.4c0,0,0,1.2-1.1,1.2c-1-0.1-1.3,0-1.3,0l-0.1-2.1c0,0,2.5-13.5-4.1-22.5"/>
	<path class="st1" d="M52.5,125.9c0,0-2.3,2.2-3.8,6c6.9,2.9,15.5,2.2,19.8,0.9"/>
	<circle class="st3" cx="70.1" cy="190.1" r="0.7"/>
	<circle class="st3" cx="50" cy="188.2" r="0.7"/>
	<path class="st2" d="M40.1,190.8l-3.4-0.6l-3.3-3.7c0,0,3.2-1.4,4.5-1.1c1.5,0.4,2,0.4,2,0.4"/>
	<path class="st2" d="M47.1,119.9c9.5,7.2,19.6,7.1,23.9,7s7.1,3,7.9,4.1c0.8,1.1,0.1,1.8-1.7,1.4c-1.3-0.8-3-2.1-3-2.1
		s-0.3,2.5-0.4,3.7c-0.1,1.2,0.2,2.7-3,1.6c-2.9,0.3-2-1.7-1.7-6.2c-20.2-2.2-25.7-8.2-25.7-8.2s-0.4,8-0.4,10.8s6.8,5.7,6.8,5.7
		s0.4-0.9,1-0.3"/>
	<path class="st2" d="M49.1,139.5c0,0-0.3-0.8,0-1.1c-2-0.8-8.4-3.3-8.6-5.7c-0.2-2.4,0.8-12.3,0.8-12.3s-1.9-1.7-0.2-2.9
		c1.8-1.2,7.8,1.6,9.5,2.7c1.7,1.1,3.5,1.8,4.8,2.3"/>
	<path class="st2" d="M169.5,52.8c-0.3-1.2-0.6-1.9-1-1.9c-0.8,0-1.4,2.9-1.4,6.5s0.6,6.5,1.4,6.5c0.8,0,1.4-4.2,1.4-7.8"/>
	<path class="st2" d="M171.9,49.4c0,4.4-0.6,8-1.3,8c-0.3,0-0.5-0.5-0.7-1.4c-0.2-0.8-0.3-1.8-0.4-3c-0.1-1.1-0.1-2.3-0.1-3.5
		c0-4.4,0.6-8,1.3-8C171.3,41.4,171.9,45,171.9,49.4z"/>
	<path class="st3" d="M144.5,145.6c0,0-9.5,2-17.6-2.8s-28.1-14.9-53.2-8.2"/>
	<path class="st4" d="M69.1,135.1c-5.5,2-12.3,5.9-12.8,6.4"/>
	<path class="st1" d="M51.3,132.8c0,0,1.1,4.8-2.3,7.3c-3.4,2.5-8,5.6-8,5.6l-0.7-0.8c0,0-0.3,0.9-1.3,0.4c-0.5,0.9-2,1.7-2.7,1.6
		c-0.6,1.1-3.7,4.5-7.2,4.4c-0.3,1.4-0.2,2.2,0,2.6c-0.8,0.6-5.8,4.1-5.8,4.1"/>
	<path class="st2" d="M21.2,158.3c0,0,9.6-0.7,13-3.8c3-2.3,4.1-3.5,4.8-2.7c0.7,0.8-3.3,4-5.3,5c-2,1.1-3.6,1.7-0.2,2.2
		c3.4,0.5,18.2,1.6,19.6,2.3c1.1,0.6,2.2,2-0.9,2.4c-3.1,0.4-31.8-0.2-34.1-0.4c-3.2-0.3-4.2-4.2-0.3-4.7
		C20,158.4,21.2,158.3,21.2,158.3z"/>
	<path class="st2" d="M39,145.3l-5.5-7.2c0,0,4-1.9-0.7-5.7c-5.7-2.4-7.4-3.2-7.4-3.2s-1.5,1.3-1.5,1.9"/>
	<path class="st4" d="M32.1,150.5l-5.5-8.5c0,0-0.4-1.1,0-1.6c0.4-0.5-1.2-2.7-1.5-2.9"/>
	<path class="st3" d="M28.9,145.6c0,0-0.6,3.6,1.4,5.5"/>
	<path class="st3" d="M29,151.2c0,0-1.9-4.1-0.9-6.8"/>
	<path class="st4" d="M240.3,164.3"/>
	<path class="st4" d="M239.3,166.4"/>
	<path class="st4" d="M240.3,166.4"/>
	<line class="st4" x1="229.3" y1="161.7" x2="229.2" y2="161.6"/>
	<path class="st4" d="M209.5,179"/>
	<path class="st1" d="M259.4,161c7.5,5.8,12.3,14.8,12.3,25c0,17.4-14.1,31.5-31.5,31.5s-31.5-14.1-31.5-31.5c0-1.8,0.2-3.6,0.5-5.4
		"/>
	<path class="st4" d="M231.1,166c2.3-1,4.7-1.7,7.3-1.9c0,0,0,0,0.1,0"/>
	<path class="st2" d="M218.2,184.7c0.4-6.8,3.9-12.8,9.1-16.6"/>
	<path class="st2" d="M244.4,164.4c10.1,2,17.8,10.9,17.8,21.6c0,12.2-9.9,22-22,22c-12.1,0-21.9-9.8-22-21.8c0-0.1,0-0.1,0-0.2"/>
	<path class="st3" d="M239.9,192.7c0.8,1,6.4,7.4,12.9,8.8c0.8-0.6,1.5-1.3,2.1-2c-1.7-1-7.8-4.6-10.9-7.9"/>
	<path class="st3" d="M246.5,188.4c1.2-0.5,9-3.8,12.4-9.5c-0.3-0.9-0.8-1.8-1.2-2.6c-1.5,1.3-6.7,6-10.9,7.9"/>
	<path class="st3" d="M244.5,180.7c-0.1-1-0.6-6.8-3.1-11.6"/>
	<path class="st3" d="M236.3,166.4c0.8,1.8,3.6,8.2,4.2,12.8"/>
	<path class="st3" d="M234,179.8c-3.2-0.5-8.7-1-13,0.9c-0.3,0.9-0.4,1.9-0.6,2.9c2-0.2,9-0.9,13.5,0"/>
	<path class="st3" d="M232.1,190.6c-1.5,3-3.3,7.7-2.8,12.1c0.8,0.5,1.7,1,2.6,1.4c0.4-1.9,1.9-8.8,4.2-12.8"/>
	<path class="st4" d="M233.7,187.8c-0.2,0.3-0.5,0.9-1,1.7"/>
	<path class="st2" d="M244.8,165.8c0,1.9-1.5,3.4-3.4,3.4c0,0,0,0-0.1,0c-1.9,0-3.4-1.5-3.4-3.4c0-0.7,0.2-1.3,0.5-1.8
		c0.6-1,1.7-1.6,2.9-1.6c1.4,0,2.5,0.8,3.1,1.9C244.6,164.8,244.8,165.3,244.8,165.8z"/>
	<path class="st2" d="M243.4,174.6c3.5,1,6.4,3.6,7.8,6.9"/>
	<path class="st2" d="M236.2,174.8c1-0.4,2-0.6,3.1-0.7"/>
	<path class="st2" d="M230.3,179.4c0.6-0.9,1.3-1.7,2.1-2.4"/>
	<path class="st2" d="M228.8,189.1c-0.3-1-0.4-2.1-0.4-3.1c0-1,0.1-1.9,0.3-2.8"/>
	<path class="st2" d="M230.9,193.4c-0.7-0.9-1.3-1.9-1.7-3"/>
	<path class="st2" d="M244.3,197.1c-1.3,0.5-2.7,0.7-4.1,0.7c-2.3,0-4.4-0.6-6.2-1.8"/>
	<path class="st2" d="M252.1,185.5c0,0.2,0,0.3,0,0.5c0,3.6-1.6,6.8-4.1,9"/>
	<path class="st4" d="M244.3,197.1"/>
	<path class="st4" d="M247.9,195"/>
	<path class="st4" d="M230.9,193.4"/>
	<path class="st4" d="M234,196.1"/>
	<path class="st4" d="M247.9,195"/>
	<path class="st4" d="M230.9,193.4"/>
	<path class="st3" d="M252.6,170.4L251,172c-0.2,0.2-0.2,0.5,0,0.7l1.9,1.9c0.2,0.2,0.5,0.2,0.7,0l1.7-1.7
		C254.5,172,253.6,171.1,252.6,170.4z"/>
	<path class="st3" d="M232.1,167.8c1.8-0.8,3.8-1.4,5.9-1.6"/>
	<path class="st3" d="M220.2,186.3c0-0.1,0-0.2,0-0.3c0-6.6,3.2-12.4,8.1-16.1"/>
	<path class="st3" d="M244.7,166.5c8.9,2,15.5,10,15.5,19.5c0,11-8.9,20-20,20c-10.5,0-19.1-8.1-19.9-18.3"/>
	<path class="st3" d="M251.6,173.3l-1.6,1.7c0,0-0.1,1,0.8,0.7c1.6-1.6,1.6-1.6,1.6-1.6"/>
	<path class="st4" d="M234.2,189.3c-0.5-1-0.8-2.1-0.8-3.2c0-1.7,0.6-3.3,1.7-4.5"/>
	<path class="st4" d="M238.8,179.4c0.4-0.1,0.9-0.1,1.4-0.1c3.7,0,6.8,3,6.8,6.8s-3,6.8-6.8,6.8c-2,0-3.8-0.9-5.1-2.3"/>
	<circle class="st4" cx="240.2" cy="186.1" r="1.2"/>
	<polyline class="st2" points="228.8,161.9 231.1,166 232.1,167.7 236.2,174.8 238.9,179.4 244.3,188.9 240.5,191.1 235,181.7 
		234,179.8 232.4,177.1 228.3,170 227.2,168.2 225,164.3 	"/>
	<path class="st1" d="M97.2,183.5c0.1,0.8,0.1,1.7,0.1,2.5c0,2.3-0.2,4.5-0.7,6.6"/>
	<path class="st1" d="M88.7,164.5c3.3,3.6,5.9,7.9,7.3,12.7"/>
	<path class="st1" d="M34.2,186.1C34.2,186.1,34.2,186,34.2,186.1c0-2.7,0.3-5.2,0.9-7.6c1.4-5.6,4.3-10.6,8.2-14.6"/>
	<path class="st1" d="M95.5,196.5c-4.3,12.3-16,21.1-29.7,21.1c-16.9,0-30.7-13.3-31.5-30"/>
	<path class="st2" d="M44.2,181c2.1-9.2,10-16.1,19.6-16.9c0,0,0,0,0.1,0"/>
	<path class="st2" d="M83,199.6c-4,5.2-10.3,8.5-17.4,8.5c-8.8,0-16.4-5.2-19.9-12.6"/>
	<path class="st4" d="M87.6,187.9"/>
	<path class="st4" d="M87.6,186.1"/>
	<path class="st2" d="M69.8,164.5c7.7,1.5,14,7,16.6,14.3"/>
	<path class="st4" d="M69.4,191.7"/>
	<path class="st4" d="M70.5,197.8c0.1,0,0.1,0.1,0.2,0.1c2.1,1.6,4.7,3.1,7.4,3.7c0.8-0.6,1.5-1.3,2.1-2c-0.3-0.2-0.6-0.4-1.1-0.6"
		/>
	<path class="st4" d="M70.4,197.7"/>
	<path class="st4" d="M65.3,192.8"/>
	<path class="st4" d="M75.4,182.4"/>
	<path class="st3" d="M84.3,179c-0.3-0.9-0.8-1.8-1.2-2.6c-0.7,0.6-2.1,1.9-3.9,3.3"/>
	<path class="st3" d="M69.9,180.8c-0.1-1-0.6-6.8-3.1-11.6"/>
	<path class="st3" d="M61.7,166.5c0.8,1.8,3.6,8.2,4.2,12.8"/>
	<path class="st4" d="M61.9,180.4c-1.2-0.3-9.5-2.2-15.6,0.4"/>
	<path class="st3" d="M55.4,196.2c-0.6,2.1-0.9,4.4-0.7,6.5c0.8,0.5,1.7,1,2.6,1.4c0.3-1.2,1-4.4,2-7.6"/>
	<path class="st2" d="M70.2,165.9c0,1.9-1.5,3.4-3.4,3.4c0,0,0,0-0.1,0c-1.9,0-3.4-1.5-3.4-3.4c0-0.7,0.2-1.3,0.5-1.8
		c0.6-1,1.7-1.6,2.9-1.6c1.4,0,2.5,0.8,3.1,1.9C70,164.9,70.2,165.4,70.2,165.9z"/>
	<path class="st2" d="M68.8,174.7c3,0.8,5.5,2.8,7.1,5.5"/>
	<path class="st2" d="M55.7,179.5c2-3,5.2-5,9-5.3"/>
	<path class="st4" d="M60.2,196.7"/>
	<path class="st2" d="M68.5,197.6C68.5,197.6,68.5,197.6,68.5,197.6c-0.1,0-0.2,0-0.3,0.1c-0.8,0.2-1.7,0.3-2.6,0.3
		c-1.9,0-3.6-0.4-5.2-1.2"/>
	<path class="st4" d="M68.6,197.6"/>
	<path class="st4" d="M73.4,195.1"/>
	<path class="st4" d="M73.3,195.1"/>
	<path class="st4" d="M56.3,193.4"/>
	<path class="st4" d="M73.3,195.1"/>
	<path class="st4" d="M56.3,193.4"/>
	<path class="st3" d="M78.1,170.5l-1.6,1.6c-0.2,0.2-0.2,0.5,0,0.7l1.9,1.9c0.2,0.2,0.5,0.2,0.7,0l1.7-1.7
		C79.9,172.1,79,171.2,78.1,170.5z"/>
	<path class="st3" d="M46.3,180.8c2.1-7.8,8.8-13.7,17-14.6"/>
	<path class="st3" d="M80.6,199.2c-3.7,4.2-9,6.8-15,6.8c-7.6,0-14.1-4.2-17.5-10.4"/>
	<path class="st4" d="M85.6,186.1c0,0.1,0,0.2,0,0.3"/>
	<path class="st3" d="M70.1,166.6c6.5,1.5,11.9,6.2,14.2,12.4"/>
	<path class="st3" d="M77,173.4l-1.6,1.7c0,0-0.1,1,0.8,0.7c1.6-1.6,1.6-1.6,1.6-1.6"/>
	<path class="st4" d="M60.7,181.4c1.2-1.3,3-2.1,4.9-2.1c2.2,0,4.1,1,5.4,2.7"/>
	<path class="st4" d="M58.8,185.4"/>
	<path class="st3" d="M173.6,77.4h4.3c0,0,1.1,0,1.4,0.9s0.3,2.3-1.4,2.9l-2.6,0.2"/>
	<path class="st2" d="M177.2,77.3c0.4-0.6,1-1,1.7-1c1.3,0,2.4,1.5,2.4,3.2s-1.1,3.2-2.4,3.2c-0.9,0-1.6-0.6-2-1.6c0,0,0-0.1,0-0.1"
		/>
	<path class="st2" d="M178.3,76.5c0,0-0.5-0.8,0.8-0.9c1.5-0.1,7.8,2.4,9,3.5c0.4,0.4,3.2,3.9-2,4c-5.3,0.1-5.3,0.1-5.3,0.1h-0.7
		c-0.3-0.1-0.2-0.7-0.2-0.7"/>
	<circle class="st2" cx="21.7" cy="146.6" r="3.8"/>
	<path class="st3" d="M23.7,137.1l-1.7-0.5c-2.1-2-0.2-5.3-0.2-5.3l1.9-0.2c0.6-0.2,1.2-0.4,1.9-0.4c2.3,0,4.2,1.5,4.2,3.4
		c0,1.9-1.9,3.4-4.2,3.4C25,137.5,24.3,137.4,23.7,137.1l0.1-6.3"/>
	<polyline class="st2" points="25.3,129.1 25.3,127.2 21,127.2 21,133.7 21,139.5 25.3,139.5 25.3,137.5 	"/>
	<rect x="17.3" y="127.6" class="st3" width="3.7" height="11.7"/>
	<path class="st3" d="M25,148.4c0,0,1.3,0.9,3.1,0.1"/>
	<path class="st3" d="M24.5,149.1c0,0,2.2,1.3,3.8,0.2"/>
	<polyline class="st3" points="19.2,143.7 20,141.3 21.6,142.8 	"/>
	<line class="st3" x1="25.2" y1="145.2" x2="27.9" y2="146"/>
	<path class="st3" d="M20.8,142.1c0,0-0.4-2.2,2.6-1.5c3,0.7,3.1,1.2,3.1,1.2"/>
	<circle class="st4" cx="24.8" cy="143.3" r="0.7"/>
	<path class="st2" d="M64.4,181.6l11.5-1.5l3.4-0.5l16.8-2.3l3.3-0.4c0,0,2.1,4.1-1.9,6.4c-0.1,0-0.1,0-0.1,0c-2.1,0.5-3.9,1-3.9,1
		s-0.3,4.7-4.2,4.7"/>
	<circle class="st2" cx="107.6" cy="181.4" r="0.9"/>
	<path class="st2" d="M108.2,174.1c-0.1,0-0.1,0-0.2,0c-0.1,0-0.2,0-0.4,0c-0.9,0-1.8,0.2-2.6,0.5c0-0.1,0-0.1,0-0.2
		c0-0.5-0.4-0.9-0.9-0.9c-0.5,0-0.9,0.4-0.9,0.9c0,0.4,0.2,0.7,0.5,0.8c-2.1,1.3-3.5,3.6-3.5,6.2c0,2.4,1.2,4.5,2.9,5.9
		c-0.4,0.1-0.7,0.5-0.7,0.9c0,0.5,0.4,0.9,0.9,0.9c0.5,0,0.9-0.4,0.9-0.9c0-0.1,0-0.1,0-0.2c1,0.5,2.1,0.8,3.3,0.8
		c3.5,0,6.5-2.5,7.2-5.8c0.2,0.2,0.4,0.4,0.7,0.4c0.5,0,0.9-0.4,0.9-0.9c0-0.5-0.4-0.9-0.9-0.9c-0.2,0-0.4,0.1-0.6,0.2
		c0-0.1,0-0.2,0-0.4c0-1.9-0.8-3.7-2-5c0,0,0,0-0.1-0.1"/>
	<path class="st2" d="M112.1,191.3c-1.4,0.6-2.9,1-4.5,1c-4.7,0-8.8-3-10.3-7.3c-0.1-0.2-0.1-0.3-0.2-0.5"/>
	<path class="st4" d="M118.1,178.6"/>
	<path class="st4" d="M107.6,170.5"/>
	<path class="st2" d="M97.7,177c1.3-3,4-5.3,7.2-6.1"/>
	<path class="st2" d="M112,191.5c-0.1-0.6,2.7-3.2,5.2-4.9c1.8-1.2,3.5-2,4.4-1.6c0.8-1.6,1.2-2.4,1.2-2.4s-2.4-1.4-3.5-3.1"/>
	<line class="st3" x1="105.7" y1="174.4" x2="114.7" y2="183.4"/>
	<line class="st3" x1="104.4" y1="174.8" x2="114.3" y2="184.7"/>
	<line class="st3" x1="103.6" y1="175.4" x2="113.7" y2="185.5"/>
	<line class="st3" x1="108.4" y1="181.8" x2="113.1" y2="186.5"/>
	<line class="st3" x1="102.8" y1="176.2" x2="107.2" y2="180.6"/>
	<line class="st3" x1="107.6" y1="182.4" x2="112.3" y2="187.1"/>
	<line class="st3" x1="101.9" y1="176.8" x2="106.6" y2="181.5"/>
	<line class="st3" x1="101.3" y1="177.6" x2="111.5" y2="187.8"/>
	<line class="st3" x1="100.7" y1="178.6" x2="110.3" y2="188.2"/>
	<line class="st3" x1="100.5" y1="179.8" x2="109.3" y2="188.6"/>
	<line class="st3" x1="100.4" y1="181.1" x2="108.1" y2="188.7"/>
	<line class="st3" x1="100.4" y1="182.4" x2="106.7" y2="188.7"/>
	<line class="st3" x1="100.7" y1="183.9" x2="105.1" y2="188.3"/>
	<path class="st3" d="M109,189"/>
	<path class="st4" d="M100.2,180.2"/>
	<line class="st3" x1="107" y1="174.1" x2="114.7" y2="181.8"/>
	<line class="st3" x1="108.5" y1="174.3" x2="115" y2="180.7"/>
	<line class="st3" x1="110.7" y1="175.2" x2="114.7" y2="179.2"/>
	<path class="st3" d="M213.6,174.5c0.9,4.2,1.9,17.3,25.7,14.6"/>
	<path class="st3" d="M212.4,175.8c0.9,4.4,3.5,15.3,22.7,14.8c1.6,0,3.2-0.2,5-0.4"/>
	<path class="st1" d="M207.9,180.6c0.9,0.1,3.4,0.2,4.9-3"/>
</g>
</svg>
